<?xml version="1.0" encoding="UTF-8"?>
<svg id="Capa_2" data-name="Capa 2" xmlns="http://www.w3.org/2000/svg" viewBox="0 0 23.81 24.31">
  <defs>
    <style>
      .cls-1 {
        fill: #212322;
      }
    </style>
  </defs>
  <g id="Layer_1" data-name="Layer 1">
    <g>
      <path class="cls-1" d="m3.61,6.88c1.76,0,3.19-1.43,3.19-3.19S5.38.5,3.61.5.42,1.93.42,3.69s1.43,3.19,3.19,3.19Z"/>
      <path class="cls-1" d="m17.93,7.38c2.04,0,3.69-1.66,3.69-3.69s-1.66-3.69-3.69-3.69-3.69,1.66-3.69,3.69,1.66,3.69,3.69,3.69Zm0-6.38c1.48,0,2.69,1.21,2.69,2.69s-1.21,2.69-2.69,2.69-2.69-1.21-2.69-2.69,1.21-2.69,2.69-2.69Z"/>
      <path class="cls-1" d="m3.61,8.48c-2,0-3.61,1.62-3.61,3.61v12.22h7.23v-12.22c0-2-1.62-3.61-3.61-3.61Z"/>
      <path class="cls-1" d="m21.85,11.32c-.29-1.94-1.93-3.34-3.89-3.34s-3.64,1.47-3.9,3.42l-1.68,12.91h11.43l-1.96-13Zm-6.79.21c.19-1.46,1.44-2.55,2.91-2.55s2.68,1.05,2.9,2.49l1.79,11.84h-9.13l1.53-11.79Z"/>
    </g>
  </g>
</svg>