<?xml version="1.0" encoding="UTF-8"?>
<svg id="Capa_2" data-name="Capa 2" xmlns="http://www.w3.org/2000/svg" viewBox="0 0 34.15 26.4">
  <defs>
    <style>
      .cls-1 {
        fill: #212322;
      }
    </style>
  </defs>
  <g id="Layer_1" data-name="Layer 1">
    <g>
      <path class="cls-1" d="m3.75,22.06h2.42v-3.75L0,15.49v4.56c0,1.11.9,2.01,2.01,2.01h.73v3.34H.33v1h5.84v-1h-2.42v-3.34Z"/>
      <path class="cls-1" d="m17.58,12.68h11.33v-.5C28.91,5.83,23.87.64,17.58.38v-.38h-1v.38c-6.29.26-11.33,5.45-11.33,11.81v.5h11.33v5.4h-8.17v3.12h8.17v4.19h-2.42v1h5.84v-1h-2.42v-4.19h8.17v-3.12h-8.17v-5.4Zm10.32-1h-10.32V1.38c5.57.26,10.07,4.73,10.32,10.31Zm-21.64,0c.25-5.57,4.75-10.05,10.32-10.31v10.31H6.26Zm18.49,8.53h-15.33v-1.12h15.33v1.12Z"/>
      <path class="cls-1" d="m32.14,22.06c1.11,0,2.01-.9,2.01-2.01v-4.56l-6.17,2.82v3.75h2.42v3.34h-2.26v1h5.84v-1h-2.58v-3.34h.73Z"/>
    </g>
  </g>
</svg>