<?xml version="1.0" encoding="utf-8"?>
<!-- Generator: Adobe Illustrator 27.5.0, SVG Export Plug-In . SVG Version: 6.00 Build 0)  -->
<svg version="1.1" id="Capa_1" xmlns="http://www.w3.org/2000/svg" xmlns:xlink="http://www.w3.org/1999/xlink" x="0px" y="0px"
	 viewBox="0 0 11.4 14.8" style="enable-background:new 0 0 11.4 14.8;" xml:space="preserve">
<style type="text/css">
	.st0{fill:#F8BD00;}
</style>
<path class="st0" d="M9.3,1.3C8,0.2,6.2-0.2,4.5,0.1C2.3,0.6,0.5,2.4,0.1,4.6c-0.5,2.4,0.6,4.7,2.6,6v1.8c0,1.3,1.1,2.4,2.4,2.4h1.3
	c1.3,0,2.4-1.1,2.4-2.4v-1.8c1.7-1.1,2.7-2.9,2.7-4.8C11.4,4,10.7,2.4,9.3,1.3L9.3,1.3z M6.4,13.7H5.1c-0.7,0-1.3-0.6-1.3-1.3v-0.6
	h3.9v0.6C7.7,13.1,7.1,13.7,6.4,13.7z M8,9.8L7.7,9.9v0.8H6.3v-5H5.2v5H3.8V9.9L3.5,9.8c-1.8-1-2.7-3-2.3-5C1.5,3,2.9,1.5,4.7,1.2
	c0.3-0.1,0.7-0.1,1-0.1c1.1,0,2.1,0.4,2.9,1c1.1,0.9,1.7,2.2,1.7,3.6C10.4,7.4,9.5,9,8,9.8L8,9.8z"/>
</svg>
