<?xml version="1.0" encoding="utf-8"?>
<!-- Generator: Adobe Illustrator 27.5.0, SVG Export Plug-In . SVG Version: 6.00 Build 0)  -->
<svg version="1.1" id="Capa_1" xmlns="http://www.w3.org/2000/svg" xmlns:xlink="http://www.w3.org/1999/xlink" x="0px" y="0px"
	 viewBox="0 0 14.8 14.8" style="enable-background:new 0 0 14.8 14.8;" xml:space="preserve">
<style type="text/css">
	.st0{fill:#F8BD00;}
</style>
<path class="st0" d="M7.4,0C3.3,0,0,3.3,0,7.4s3.3,7.4,7.4,7.4s7.4-3.3,7.4-7.4S11.5,0,7.4,0z M7.4,13.8C3.9,13.8,1,10.9,1,7.4
	S3.9,1,7.4,1s6.4,2.9,6.4,6.4S10.9,13.8,7.4,13.8z"/>
<path class="st0" d="M7.4,2.8c-2.5,0-4.6,2.1-4.6,4.6S4.9,12,7.4,12S12,9.9,12,7.4S9.9,2.8,7.4,2.8z M7.4,11c-2,0-3.6-1.6-3.6-3.6
	s1.6-3.6,3.6-3.6S11,5.4,11,7.4S9.4,11,7.4,11z"/>
<path class="st0" d="M7.4,5.6c-1,0-1.8,0.8-1.8,1.8s0.8,1.8,1.8,1.8s1.8-0.8,1.8-1.8S8.4,5.6,7.4,5.6z M7.4,8.2
	c-0.5,0-0.8-0.4-0.8-0.8s0.4-0.8,0.8-0.8s0.8,0.4,0.8,0.8S7.9,8.2,7.4,8.2z"/>
</svg>
