<?xml version="1.0" encoding="utf-8"?>
<!-- Generator: Adobe Illustrator 27.5.0, SVG Export Plug-In . SVG Version: 6.00 Build 0)  -->
<svg version="1.1" id="Capa_1" xmlns="http://www.w3.org/2000/svg" xmlns:xlink="http://www.w3.org/1999/xlink" x="0px" y="0px"
	 viewBox="0 0 14 12.2" style="enable-background:new 0 0 14 12.2;" xml:space="preserve">
<style type="text/css">
	.st0{fill:#F8BD00;}
</style>
<path class="st0" d="M13,1c-1.4-1.4-3.8-1.4-5.2,0L7,1.8L6.3,1C4.9-0.3,2.5-0.3,1.1,1C0.4,1.7,0,2.7,0,3.6s0.4,1.9,1.1,2.6l0.7,0.7
	l0,0L7,12.2l5.9-6C13.6,5.5,14,4.6,14,3.6S13.6,1.7,13,1z M12.2,5.5L7,10.8L3.3,7.1l0,0L1.8,5.5C1.3,5,1,4.3,1,3.6s0.3-1.4,0.8-1.9
	c1-1,2.8-1,3.8,0L7,3.2l1.5-1.5c1-1,2.8-1,3.8,0C12.8,2.2,13,2.9,13,3.6S12.8,5,12.2,5.5L12.2,5.5z"/>
</svg>
