<?xml version="1.0" encoding="UTF-8"?>
<svg id="Capa_2" data-name="Capa 2" xmlns="http://www.w3.org/2000/svg" viewBox="0 0 14.8 14.8">
  <defs>
    <style>
      .cls-1 {
        fill: #212322;
      }
    </style>
  </defs>
  <g id="Layer_1" data-name="Layer 1">
    <path class="cls-1" d="m7.4,14.8C3.32,14.8,0,11.48,0,7.4S3.32,0,7.4,0s7.4,3.32,7.4,7.4-3.32,7.4-7.4,7.4Zm0-13.8C3.87,1,1,3.87,1,7.4s2.87,6.4,6.4,6.4,6.4-2.87,6.4-6.4S10.93,1,7.4,1Z"/>
    <path class="cls-1" d="m7.4,11.97c-2.52,0-4.57-2.05-4.57-4.57S4.88,2.83,7.4,2.83s4.57,2.05,4.57,4.57-2.05,4.57-4.57,4.57Zm0-8.14c-1.97,0-3.57,1.6-3.57,3.57s1.6,3.57,3.57,3.57,3.57-1.6,3.57-3.57-1.6-3.57-3.57-3.57Z"/>
    <path class="cls-1" d="m7.4,9.25c-1.02,0-1.85-.83-1.85-1.85s.83-1.85,1.85-1.85,1.85.83,1.85,1.85-.83,1.85-1.85,1.85Zm0-2.7c-.47,0-.85.38-.85.85s.38.85.85.85.85-.38.85-.85-.38-.85-.85-.85Z"/>
  </g>
</svg>