<?xml version="1.0" encoding="UTF-8"?>
<svg id="Capa_2" data-name="Capa 2" xmlns="http://www.w3.org/2000/svg" viewBox="0 0 11.45 14.76">
  <defs>
    <style>
      .cls-1 {
        fill: #212322;
      }
    </style>
  </defs>
  <g id="Layer_1" data-name="Layer 1">
    <path class="cls-1" d="m9.33,1.28C7.99.18,6.22-.23,4.49.13,2.3.59.54,2.38.11,4.59c-.46,2.38.55,4.69,2.58,5.96v1.83c0,1.31,1.07,2.38,2.38,2.38h1.3c1.31,0,2.38-1.07,2.38-2.38v-1.83c1.67-1.05,2.69-2.87,2.69-4.83,0-1.73-.77-3.35-2.12-4.45Zm-2.95,12.42h-1.3c-.73,0-1.32-.59-1.32-1.32v-.56h3.94v.56c0,.73-.59,1.32-1.32,1.32Zm1.59-3.92l-.27.15v.82h-1.44v-5.03h-1.07v5.03h-1.44v-.82l-.27-.15c-1.8-1-2.72-2.96-2.33-4.98.35-1.79,1.77-3.25,3.55-3.62.33-.07.67-.11,1-.11,1.07,0,2.11.36,2.95,1.04,1.1.89,1.72,2.21,1.72,3.62,0,1.67-.93,3.23-2.42,4.06Z"/>
  </g>
</svg>