<?xml version="1.0" encoding="UTF-8"?>
<svg id="Capa_2" data-name="Capa 2" xmlns="http://www.w3.org/2000/svg" viewBox="0 0 14.03 12.21">
  <defs>
    <style>
      .cls-1 {
        fill: #231f20;
      }
    </style>
  </defs>
  <g id="Layer_3" data-name="Layer 3">
    <path class="cls-1" d="m7.03,12.21L1.85,7.03h0s-.78-.78-.78-.78C-.36,4.82-.36,2.5,1.07,1.07s3.75-1.43,5.18,0l.77.77.76-.77c1.43-1.43,3.75-1.43,5.18,0h0c1.43,1.43,1.43,3.75,0,5.18l-5.93,5.96Zm-3.77-5.18l3.76,3.76,5.23-5.25c1.04-1.04,1.04-2.73,0-3.77s-2.73-1.04-3.77,0l-1.47,1.48-1.48-1.48c-1.04-1.04-2.73-1.04-3.77,0s-1.04,2.73,0,3.77l1.49,1.48h0Z"/>
  </g>
</svg>