<?xml version="1.0" encoding="UTF-8"?>
<svg id="Capa_2" data-name="Capa 2" xmlns="http://www.w3.org/2000/svg" viewBox="0 0 60.55 68.57">
  <defs>
    <style>
      .cls-1 {
        fill: #212322;
      }
    </style>
  </defs>
  <g id="Layer_3" data-name="Layer 3">
    <g>
      <path class="cls-1" d="m55.41,26.7h-3.6c-.28,0-.5.22-.5.5v8.56L15.69.15c-.14-.14-.36-.19-.54-.11-.19.08-.31.26-.31.46v35.35h-5.59v-8.65c0-.28-.22-.5-.5-.5h-3.6c-2.83,0-5.14,2.31-5.14,5.14v31.59c0,2.83,2.31,5.14,5.14,5.14h50.27c2.83,0,5.14-2.31,5.14-5.14v-31.59c0-2.83-2.31-5.14-5.14-5.14ZM15.83,1.71l34.14,34.14H15.83V1.71ZM1,31.84c0-2.28,1.86-4.14,4.14-4.14h3.1v30.59h-3.1c-1.7,0-3.2.83-4.14,2.1v-28.55Zm54.41,35.73H10.93l30.72-30.72h9.53s.08-.03.12-.04v21.98c0,.28.22.5.5.5h3.6c2.28,0,4.14,1.86,4.14,4.14s-1.86,4.14-4.14,4.14Z"/>
      <path class="cls-1" d="m35.15,30.02c.2,0,.38-.12.46-.31s.03-.4-.11-.54l-12.98-12.98c-.14-.14-.36-.19-.54-.11-.19.08-.31.26-.31.46v12.98c0,.28.22.5.5.5h12.98Zm-12.48-12.28l11.28,11.28h-11.28v-11.28Z"/>
      <path class="cls-1" d="m47.6,56.41h-3.31c-.2-.96-.96-1.72-1.92-1.92v-3.31c0-.28-.22-.5-.5-.5s-.5.22-.5.5v3.31c-.96.2-1.72.96-1.92,1.92h-3.31c-.28,0-.5.22-.5.5s.22.5.5.5h3.31c.2.96.96,1.72,1.92,1.92v3.31c0,.28.22.5.5.5s.5-.22.5-.5v-3.31c.96-.2,1.72-.96,1.92-1.92h3.3c.28,0,.5-.22.5-.5s-.22-.5-.5-.5Zm-5.73,1.97c-.81,0-1.47-.66-1.47-1.47s.66-1.47,1.47-1.47,1.47.66,1.47,1.47-.66,1.47-1.47,1.47Z"/>
      <path class="cls-1" d="m32.53,56.41h-7.86c-.28,0-.5.22-.5.5s.22.5.5.5h7.86c.28,0,.5-.22.5-.5s-.22-.5-.5-.5Z"/>
      <path class="cls-1" d="m42.16,48.14c.28,0,.5-.22.5-.5v-7.72c0-.28-.22-.5-.5-.5s-.5.22-.5.5v7.72c0,.28.22.5.5.5Z"/>
    </g>
  </g>
</svg>