<?xml version="1.0" encoding="UTF-8"?>
<svg id="Capa_2" data-name="Capa 2" xmlns="http://www.w3.org/2000/svg" viewBox="0 0 47.45 99.42">
  <defs>
    <style>
      .cls-1 {
        fill: #212322;
      }
    </style>
  </defs>
  <g id="Layer_1" data-name="Layer 1">
    <g>
      <path class="cls-1" d="m47.45,42.81h-.02v-19.1l-.13-.13h0S23.73,0,23.73,0L.16,23.58h0s-.16.16-.16.16v.39h.01v51.58l23.37,23.37h0s.35.35.35.35l.35-.35h0s23.37-23.37,23.37-23.37v-14.94l-3.64-3.72,3.64-5.7v-8.54ZM23.73,1.4l22.53,22.53-22.53,22.53L1.21,23.93,23.73,1.4Zm22.73,49.65l-3.91,6.12,3.91,3.99v14.13l-22.24,22.24v-50.17l22.24-22.24v25.93Z"/>
      <path class="cls-1" d="m36.47,57.79h0c2.25-2.27,3.5-5.34,3.5-8.54v-9.89l-8.47,8.58v7.81c0,2.59,3.14,3.88,4.97,2.04Z"/>
      <path class="cls-1" d="m39.97,66.62c0-2.57-3.11-3.85-4.92-2.02h0c-2.28,2.31-3.55,5.42-3.55,8.66v10.43l8.47-8.58v-8.49Z"/>
    </g>
  </g>
</svg>