<?xml version="1.0" encoding="UTF-8"?>
<svg id="Capa_2" data-name="Capa 2" xmlns="http://www.w3.org/2000/svg" viewBox="0 0 37.85 78.46">
  <defs>
    <style>
      .cls-1 {
        fill: #f8bd00;
      }
    </style>
  </defs>
  <g id="Layer_1" data-name="Layer 1">
    <path class="cls-1" d="m19.73,78.46l18.12-18.12v-11.51l-3.18-3.25,3.18-4.98v-21.13l-18.12,18.12v40.87Zm5.92-40.4l6.9-6.99v8.06c0,2.6-1.03,5.1-2.85,6.96-1.48,1.5-4.05.45-4.05-1.66v-6.36Zm0,20.63c0-2.64,1.04-5.18,2.9-7.06,1.47-1.49,4.01-.45,4.01,1.64v6.92l-6.9,6.99v-8.5Z"/>
    <rect class="cls-1" x="6.33" y="5.38" width="25.95" height="25.95" transform="translate(-7.32 19.03) rotate(-45)"/>
    <polygon class="cls-1" points=".81 23.92 0 23.92 0 23.92 0 60.68 16.52 77.2 16.52 77.2 16.52 76.06 .81 60.35 .81 23.92"/>
  </g>
</svg>