<?xml version="1.0" encoding="UTF-8"?>
<svg id="Capa_2" data-name="Capa 2" xmlns="http://www.w3.org/2000/svg" viewBox="0 0 392.73 279.79">
  <defs>
    <style>
      .cls-1 {
        fill: #f8bd00;
      }
    </style>
  </defs>
  <g id="Layer_3" data-name="Layer 3">
    <g>
      <path class="cls-1" d="m81.7,138.35l-16.32-16.32c-.14-.14-.14-.37,0-.52l16.32-16.32c.14-.14.37-.14.52,0l16.32,16.32c.07.07.11.16.11.26,0,.1-.04.19-.11.26l-16.32,16.32c-.07.07-.16.11-.26.11s-.19-.04-.26-.11Zm.26-32.38l-15.8,15.8,15.8,15.8,15.8-15.8-15.8-15.8Z"/>
      <path class="cls-1" d="m81.95,174.69c.09,0,.19-.04.26-.11l16.32-16.32c.07-.07.11-.16.11-.26v-36.23c0-.2-.16-.36-.36-.36s-.36.16-.36.36v36.08s-15.95,15.95-15.95,15.95l-15.95-15.95v-36.08c0-.2-.16-.36-.36-.36s-.36.16-.36.36v36.23c0,.1.04.19.11.26l16.32,16.32c.07.07.16.11.26.11Z"/>
      <path class="cls-1" d="m81.95,174.69c.2,0,.36-.16.36-.36v-36.23c0-.2-.16-.36-.36-.36s-.36.16-.36.36v36.23c0,.2.16.36.36.36Z"/>
      <polygon class="cls-1" points="81.95 138.09 98.27 121.78 98.27 158 81.95 174.32 81.95 138.09"/>
      <path class="cls-1" d="m98.01,85.8l-16.32-16.32c-.07-.07-.11-.16-.11-.26s.04-.19.11-.26l16.32-16.32c.14-.14.37-.14.52,0l16.32,16.32c.14.14.14.37,0,.52l-16.32,16.32c-.07.07-.16.11-.26.11s-.19-.04-.26-.11Zm.26-32.38l-15.8,15.8,15.8,15.8,15.8-15.8-15.8-15.8Z"/>
      <path class="cls-1" d="m114.33,33.26l-16.32-16.32c-.14-.14-.14-.37,0-.52L114.33.11c.14-.14.37-.14.52,0l16.32,16.32c.14.14.14.37,0,.52l-16.32,16.32c-.07.07-.16.11-.26.11s-.19-.04-.26-.11Zm.26-32.38l-15.8,15.8,15.8,15.8,15.8-15.8L114.59.88Z"/>
      <path class="cls-1" d="m81.7,33.26l-16.32-16.32c-.14-.14-.14-.37,0-.52L81.7.11c.14-.14.37-.14.52,0l16.32,16.32c.14.14.14.37,0,.52l-16.32,16.32c-.07.07-.16.11-.26.11s-.19-.04-.26-.11Zm.26-32.38l-15.8,15.8,15.8,15.8,15.8-15.8L81.95.88Z"/>
      <path class="cls-1" d="m98.27,122.14c.09,0,.19-.04.26-.11l16.32-16.32c.07-.07.11-.16.11-.26v-36.23c0-.2-.16-.36-.36-.36s-.36.16-.36.36v36.08s-15.95,15.95-15.95,15.95l-15.95-15.95v-10.06c0-.2-.16-.36-.36-.36s-.36.16-.36.36v10.21c0,.1.04.19.11.26l16.32,16.32c.07.07.16.11.26.11Z"/>
      <path class="cls-1" d="m81.95,88.75c.2,0,.36-.16.36-.36v-19.16c0-.2-.16-.36-.36-.36s-.36.16-.36.36v19.16c0,.2.16.36.36.36Z"/>
      <path class="cls-1" d="m98.27,122.14c.2,0,.36-.16.36-.36v-36.23c0-.2-.16-.36-.36-.36s-.36.16-.36.36v36.23c0,.2.16.36.36.36Z"/>
      <path class="cls-1" d="m32.74,190.9l-16.32-16.32c-.14-.14-.14-.37,0-.52l16.32-16.32c.14-.14.37-.14.52,0l16.32,16.32c.14.14.14.37,0,.52l-16.32,16.32c-.07.07-.16.11-.26.11s-.19-.04-.26-.11Zm.26-32.38l-15.8,15.8,15.8,15.8,15.8-15.8-15.8-15.8Z"/>
      <path class="cls-1" d="m33,227.23c.09,0,.19-.04.26-.11l16.32-16.32c.07-.07.11-.16.11-.26v-36.23c0-.2-.16-.36-.36-.36s-.36.16-.36.36v36.08s-15.95,15.95-15.95,15.95l-15.95-15.95v-36.08c0-.2-.16-.36-.36-.36s-.36.16-.36.36v36.23c0,.1.04.19.11.26l16.32,16.32c.07.07.16.11.26.11Z"/>
      <path class="cls-1" d="m33,227.23c.2,0,.36-.16.36-.36v-36.23c0-.2-.16-.36-.36-.36s-.36.16-.36.36v36.23c0,.2.16.36.36.36Z"/>
      <path class="cls-1" d="m16.43,138.35L.11,122.03c-.14-.14-.14-.37,0-.52l16.32-16.32c.14-.14.37-.14.52,0l16.32,16.32c.14.14.14.37,0,.52l-16.32,16.32c-.07.07-.16.11-.26.11s-.19-.04-.26-.11Zm.26-32.38L.88,121.78l15.8,15.8,15.8-15.8-15.8-15.8Z"/>
      <path class="cls-1" d="m16.68,174.69c.09,0,.19-.04.26-.11l16.32-16.32c.07-.07.11-.16.11-.26v-36.23c0-.2-.16-.36-.36-.36s-.36.16-.36.36v36.08s-15.95,15.95-15.95,15.95l-15.95-15.95v-36.08c0-.2-.16-.36-.36-.36s-.36.16-.36.36v36.23c0,.1.04.19.11.26l16.32,16.32c.07.07.16.11.26.11Z"/>
      <path class="cls-1" d="m.36,191c.09,0,.19-.04.26-.11l16.32-16.32c.07-.07.11-.16.11-.26v-36.23c0-.2-.16-.36-.36-.36s-.36.16-.36.36v36.08S.11,190.38.11,190.38c-.14.14-.14.37,0,.52.07.07.16.11.26.11Z"/>
      <g>
        <rect class="cls-1" x="54.1" y="162.78" width="23.08" height="23.08" transform="translate(235.31 251.17) rotate(135)"/>
        <path class="cls-1" d="m65.38,190.9l-16.32-16.32c-.14-.14-.14-.37,0-.52l16.32-16.32c.14-.14.37-.14.52,0l16.32,16.32c.14.14.14.37,0,.52l-16.32,16.32c-.07.07-.16.11-.26.11s-.19-.04-.26-.11Zm.26-32.38l-15.8,15.8,15.8,15.8,15.8-15.8-15.8-15.8Z"/>
      </g>
      <g>
        <polyline class="cls-1" points=".36 190.64 16.68 174.32 .36 158"/>
        <path class="cls-1" d="m.36,191c.09,0,.19-.04.26-.11l16.32-16.32c.14-.14.14-.37,0-.52L.62,157.75c-.14-.14-.37-.14-.52,0s-.14.37,0,.52l16.06,16.06L.11,190.38c-.14.14-.14.37,0,.52.07.07.16.11.26.11Z"/>
      </g>
      <g>
        <rect class="cls-1" x="54.1" y="57.69" width="23.08" height="23.08" transform="translate(161 71.77) rotate(135)"/>
        <path class="cls-1" d="m65.38,85.8l-16.32-16.32c-.14-.14-.14-.37,0-.52l16.32-16.32c.14-.14.37-.14.52,0l16.32,16.32c.14.14.14.37,0,.52l-16.32,16.32c-.07.07-.16.11-.26.11s-.19-.04-.26-.11Zm.26-32.38l-15.8,15.8,15.8,15.8,15.8-15.8-15.8-15.8Z"/>
      </g>
      <path class="cls-1" d="m65.64,227.23c.09,0,.19-.04.26-.11l16.32-16.32c.07-.07.11-.16.11-.26v-36.23c0-.2-.16-.36-.36-.36s-.36.16-.36.36v36.08s-15.95,15.95-15.95,15.95l-15.95-15.95v-36.08c0-.2-.16-.36-.36-.36s-.36.16-.36.36v36.23c0,.1.04.19.11.26l16.32,16.32c.07.07.16.11.26.11Z"/>
      <path class="cls-1" d="m65.64,227.23c.2,0,.36-.16.36-.36v-36.23c0-.2-.16-.36-.36-.36s-.36.16-.36.36v36.23c0,.2.16.36.36.36Z"/>
      <path class="cls-1" d="m130.91,225.44c.2,0,.36-.16.36-.36v-36.23c0-.2-.16-.36-.36-.36s-.36.16-.36.36v36.23c0,.2.16.36.36.36Z"/>
      <path class="cls-1" d="m98.01,190.9l-16.32-16.32c-.07-.07-.11-.16-.11-.26s.04-.19.11-.26l16.32-16.32c.14-.14.37-.14.52,0l16.32,16.32c.14.14.14.37,0,.52l-16.32,16.32c-.07.07-.16.11-.26.11s-.19-.04-.26-.11Zm.26-32.38l-15.8,15.8,15.8,15.8,15.8-15.8-15.8-15.8Z"/>
      <path class="cls-1" d="m98.27,227.23c.09,0,.19-.04.26-.11l16.32-16.32c.07-.07.11-.16.11-.26v-36.23c0-.2-.16-.36-.36-.36s-.36.16-.36.36v36.08s-15.95,15.95-15.95,15.95l-15.95-15.95v-36.08c0-.2-.16-.36-.36-.36s-.36.16-.36.36v36.23c0,.1.04.19.11.26l16.32,16.32c.07.07.16.11.26.11Z"/>
      <path class="cls-1" d="m98.27,227.23c.2,0,.36-.16.36-.36v-36.23c0-.2-.16-.36-.36-.36s-.36.16-.36.36v36.23c0,.2.16.36.36.36Z"/>
      <polygon class="cls-1" points="98.27 190.64 114.59 174.32 114.59 210.55 98.27 226.87 98.27 190.64"/>
      <polygon class="cls-1" points="147.22 137.84 163.54 121.52 163.54 157.75 147.22 174.07 147.22 137.84"/>
      <polygon class="cls-1" points="228.81 190.64 245.13 174.32 245.13 210.55 228.81 226.87 228.81 190.64"/>
      <polygon class="cls-1" points="343.41 243.02 359.73 226.7 359.73 262.93 343.41 279.25 343.41 243.02"/>
      <polygon class="cls-1" points="277.96 242.83 261.64 226.51 261.64 262.74 277.96 279.06 277.96 242.83"/>
      <polygon class="cls-1" points="212.13 242.83 195.81 226.51 195.81 262.74 212.13 279.06 212.13 242.83"/>
      <polygon class="cls-1" points="196.54 190.64 180.22 174.32 180.22 210.55 196.54 226.87 196.54 190.64"/>
      <path class="cls-1" d="m114.33,138.35l-16.32-16.32c-.14-.14-.14-.37,0-.52l16.32-16.32c.14-.14.37-.14.52,0l16.32,16.32c.14.14.14.37,0,.52l-16.32,16.32c-.07.07-.16.11-.26.11s-.19-.04-.26-.11Zm.26-32.38l-15.8,15.8,15.8,15.8,15.8-15.8-15.8-15.8Z"/>
      <path class="cls-1" d="m114.59,174.69c.09,0,.19-.04.26-.11l16.32-16.32c.07-.07.11-.16.11-.26v-36.23c0-.2-.16-.36-.36-.36s-.36.16-.36.36v36.08s-15.95,15.95-15.95,15.95l-15.95-15.95v-36.08c0-.2-.16-.36-.36-.36s-.36.16-.36.36v36.23c0,.1.04.19.11.26l16.32,16.32c.07.07.16.11.26.11Z"/>
      <path class="cls-1" d="m49.06,138.35l-16.32-16.32c-.14-.14-.14-.37,0-.52l16.32-16.32c.14-.14.37-.14.52,0l16.32,16.32c.14.14.14.37,0,.52l-16.32,16.32c-.07.07-.16.11-.26.11s-.19-.04-.26-.11Zm.26-32.38l-15.8,15.8,15.8,15.8,15.8-15.8-15.8-15.8Z"/>
      <path class="cls-1" d="m49.32,174.69c.09,0,.19-.04.26-.11l16.32-16.32c.07-.07.11-.16.11-.26v-36.23c0-.2-.16-.36-.36-.36s-.36.16-.36.36v36.08s-15.95,15.95-15.95,15.95l-15.95-15.95v-36.08c0-.2-.16-.36-.36-.36s-.36.16-.36.36v36.23c0,.1.04.19.11.26l16.32,16.32c.07.07.16.11.26.11Z"/>
      <path class="cls-1" d="m130.65,85.8l-16.32-16.32c-.14-.14-.14-.37,0-.52l16.32-16.32c.14-.14.37-.14.52,0l16.32,16.32c.14.14.14.37,0,.52l-16.32,16.32c-.07.07-.16.11-.26.11s-.19-.04-.26-.11Zm.26-32.38l-15.8,15.8,15.8,15.8,15.8-15.8-15.8-15.8Z"/>
      <path class="cls-1" d="m130.91,122.14c.09,0,.19-.04.26-.11l16.32-16.32c.07-.07.11-.16.11-.26v-36.23c0-.2-.16-.36-.36-.36s-.36.16-.36.36v36.08s-15.95,15.95-15.95,15.95l-15.95-15.95v-36.08c0-.2-.16-.36-.36-.36s-.36.16-.36.36v36.23c0,.1.04.19.11.26l16.32,16.32c.07.07.16.11.26.11Z"/>
      <path class="cls-1" d="m163.54,122.14c.09,0,.19-.04.26-.11.14-.14.14-.37,0-.52l-16.21-16.21v-36.08c0-.2-.16-.36-.36-.36s-.36.16-.36.36v36.23c0,.1.04.19.11.26l16.32,16.32c.07.07.16.11.26.11Z"/>
      <path class="cls-1" d="m114.59,69.59c.09,0,.19-.04.26-.11l16.32-16.32c.07-.07.11-.16.11-.26V16.68c0-.2-.16-.36-.36-.36s-.36.16-.36.36v36.08s-15.95,15.95-15.95,15.95l-15.95-15.95V16.68c0-.2-.16-.36-.36-.36s-.36.16-.36.36v36.23c0,.1.04.19.11.26l16.32,16.32c.07.07.16.11.26.11Z"/>
      <path class="cls-1" d="m81.95,33.36c.09,0,.19-.04.26-.11l16.32-16.32c.14-.14.14-.37,0-.52s-.37-.14-.52,0l-16.06,16.06-16.06-16.06c-.14-.14-.37-.14-.52,0s-.14.37,0,.52l16.32,16.32c.07.07.16.11.26.11Z"/>
      <path class="cls-1" d="m81.95,69.59c.09,0,.19-.04.26-.11l16.32-16.32c.07-.07.11-.16.11-.26V16.68c0-.2-.16-.36-.36-.36s-.36.16-.36.36v36.08s-15.95,15.95-15.95,15.95l-15.95-15.95V16.68c0-.2-.16-.36-.36-.36s-.36.16-.36.36v36.23c0,.1.04.19.11.26l16.32,16.32c.07.07.16.11.26.11Z"/>
      <path class="cls-1" d="m130.65,190.9l-16.32-16.32c-.14-.14-.14-.37,0-.52l16.32-16.32c.14-.14.37-.14.52,0l16.32,16.32c.14.14.14.37,0,.52l-16.32,16.32c-.07.07-.16.11-.26.11s-.19-.04-.26-.11Zm.26-32.38l-15.8,15.8,15.8,15.8,15.8-15.8-15.8-15.8Z"/>
      <path class="cls-1" d="m130.91,227.23c.09,0,.19-.04.26-.11l16.32-16.32c.07-.07.11-.16.11-.26v-36.23c0-.2-.16-.36-.36-.36s-.36.16-.36.36v36.08s-15.95,15.95-15.95,15.95l-15.95-15.95v-36.08c0-.2-.16-.36-.36-.36s-.36.16-.36.36v36.23c0,.1.04.19.11.26l16.32,16.32c.07.07.16.11.26.11Z"/>
      <path class="cls-1" d="m146.97,243.41l-16.32-16.32c-.14-.14-.14-.37,0-.52l16.32-16.32c.14-.14.37-.14.52,0l16.32,16.32c.14.14.14.37,0,.52l-16.32,16.32c-.07.07-.16.11-.26.11s-.19-.04-.26-.11Zm.26-32.38l-15.8,15.8,15.8,15.8,15.8-15.8-15.8-15.8Z"/>
      <path class="cls-1" d="m163.54,263.43c.2,0,.36-.16.36-.36v-36.23c0-.2-.16-.36-.36-.36s-.36.16-.36.36v36.23c0,.2.16.36.36.36Z"/>
      <path class="cls-1" d="m130.91,263.43c.2,0,.36-.16.36-.36v-36.23c0-.2-.16-.36-.36-.36s-.36.16-.36.36v36.23c0,.2.16.36.36.36Z"/>
      <path class="cls-1" d="m114.33,243.41l-16.32-16.32c-.14-.14-.14-.37,0-.52l16.32-16.32c.14-.14.37-.14.52,0l16.32,16.32c.14.14.14.37,0,.52l-16.32,16.32c-.07.07-.16.11-.26.11s-.19-.04-.26-.11Zm.26-32.38l-15.8,15.8,15.8,15.8,15.8-15.8-15.8-15.8Z"/>
      <path class="cls-1" d="m130.91,263.43c.2,0,.36-.16.36-.36v-36.23c0-.2-.16-.36-.36-.36s-.36.16-.36.36v36.23c0,.2.16.36.36.36Z"/>
      <path class="cls-1" d="m98.27,263.43c.2,0,.36-.16.36-.36v-36.23c0-.2-.16-.36-.36-.36s-.36.16-.36.36v36.23c0,.2.16.36.36.36Z"/>
      <path class="cls-1" d="m81.7,243.41l-16.32-16.32c-.14-.14-.14-.37,0-.52l16.32-16.32c.14-.14.37-.14.52,0l16.32,16.32c.14.14.14.37,0,.52l-16.32,16.32c-.07.07-.16.11-.26.11s-.19-.04-.26-.11Zm.26-32.38l-15.8,15.8,15.8,15.8,15.8-15.8-15.8-15.8Z"/>
      <path class="cls-1" d="m.37,227.2c.09,0,.19-.04.26-.11l16.06-16.06,16.06,16.06c.14.14.37.14.52,0s.14-.37,0-.52l-16.32-16.32c-.14-.14-.37-.14-.52,0L.11,226.58c-.14.14-.14.37,0,.52.07.07.16.11.26.11Z"/>
      <path class="cls-1" d="m98.27,263.43c.2,0,.36-.16.36-.36v-36.23c0-.2-.16-.36-.36-.36s-.36.16-.36.36v36.23c0,.2.16.36.36.36Z"/>
      <path class="cls-1" d="m65.64,263.43c.2,0,.36-.16.36-.36v-36.23c0-.2-.16-.36-.36-.36s-.36.16-.36.36v36.23c0,.2.16.36.36.36Z"/>
      <path class="cls-1" d="m65.38,85.81l-16.32-16.32c-.14-.14-.14-.37,0-.52l16.32-16.32c.14-.14.37-.14.52,0l16.32,16.32c.14.14.14.37,0,.52l-16.32,16.32c-.07.07-.16.11-.26.11s-.19-.04-.26-.11Zm.26-32.38l-15.8,15.8,15.8,15.8,15.8-15.8-15.8-15.8Z"/>
      <path class="cls-1" d="m65.64,122.14c.1,0,.19-.04.26-.11l16.32-16.32c.07-.07.11-.16.11-.26v-36.23c0-.2-.16-.36-.36-.36s-.36.16-.36.36v36.08s-15.95,15.95-15.95,15.95l-15.95-15.95v-36.08c0-.2-.16-.36-.36-.36s-.36.16-.36.36v36.23c0,.1.04.19.11.26l16.32,16.32c.07.07.16.11.26.11Z"/>
      <g>
        <rect class="cls-1" x="37.78" y="215.29" width="23.08" height="23.08" transform="translate(244.59 352.35) rotate(135)"/>
        <path class="cls-1" d="m49.06,243.41l-16.32-16.32c-.14-.14-.14-.37,0-.52l16.32-16.32c.14-.14.38-.14.52,0l16.32,16.32c.14.14.14.37,0,.52l-16.32,16.32c-.07.07-.16.11-.26.11s-.19-.04-.26-.11Zm.26-32.38l-15.8,15.8,15.8,15.8,15.8-15.8-15.8-15.8Z"/>
      </g>
      <path class="cls-1" d="m65.64,263.43c.2,0,.36-.16.36-.36v-36.23c0-.2-.16-.36-.36-.36s-.36.16-.36.36v36.23c0,.2.16.36.36.36Z"/>
      <path class="cls-1" d="m33,263.43c.2,0,.36-.16.36-.36v-36.23c0-.2-.16-.36-.36-.36s-.36.16-.36.36v36.23c0,.2.16.36.36.36Z"/>
      <path class="cls-1" d="m114.59,174.69c.2,0,.36-.16.36-.36v-36.23c0-.2-.16-.36-.36-.36s-.36.16-.36.36v36.23c0,.2.16.36.36.36Z"/>
      <path class="cls-1" d="m146.97,138.35l-16.32-16.32c-.14-.14-.14-.37,0-.52l16.32-16.32c.14-.14.37-.14.52,0l16.32,16.32c.14.14.14.37,0,.52l-16.32,16.32c-.07.07-.16.11-.26.11s-.19-.04-.26-.11Zm.26-32.38l-15.8,15.8,15.8,15.8,15.8-15.8-15.8-15.8Z"/>
      <path class="cls-1" d="m147.23,174.69c.09,0,.19-.04.26-.11l16.32-16.32c.07-.07.11-.16.11-.26v-36.23c0-.2-.16-.36-.36-.36s-.36.16-.36.36v36.08s-15.95,15.95-15.95,15.95l-15.95-15.95v-36.08c0-.2-.16-.36-.36-.36s-.36.16-.36.36v36.23c0,.1.04.19.11.26l16.32,16.32c.07.07.16.11.26.11Z"/>
      <path class="cls-1" d="m147.23,174.69c.2,0,.36-.16.36-.36v-36.23c0-.2-.16-.36-.36-.36s-.36.16-.36.36v36.23c0,.2.16.36.36.36Z"/>
      <polygon class="cls-1" points="33 85.29 49.32 68.97 49.32 105.2 33 121.52 33 85.29"/>
      <polygon class="cls-1" points="81.95 33 98.27 16.68 98.27 52.91 81.95 69.23 81.95 33"/>
      <path class="cls-1" d="m32.74,85.8l-16.32-16.32c-.14-.14-.14-.37,0-.52l16.32-16.32c.14-.14.37-.14.52,0l16.32,16.32c.14.14.14.37,0,.52l-16.32,16.32c-.07.07-.16.11-.26.11s-.19-.04-.26-.11Zm.26-32.38l-15.8,15.8,15.8,15.8,15.8-15.8-15.8-15.8Z"/>
      <path class="cls-1" d="m33,122.14c.09,0,.19-.04.26-.11l16.32-16.32c.07-.07.11-.16.11-.26v-36.23c0-.2-.16-.36-.36-.36s-.36.16-.36.36v36.08s-15.95,15.95-15.95,15.95l-15.95-15.95v-36.08c0-.2-.16-.36-.36-.36s-.36.16-.36.36v36.23c0,.1.04.19.11.26l16.32,16.32c.07.07.16.11.26.11Z"/>
      <path class="cls-1" d="m33,122.14c.2,0,.36-.16.36-.36v-36.23c0-.2-.16-.36-.36-.36s-.36.16-.36.36v36.23c0,.2.16.36.36.36Z"/>
      <polygon class="cls-1" points="147.22 243.15 147.22 263.02 130.91 263.02 130.91 227.46 147.22 243.15"/>
      <polygon class="cls-1" points=".37 226.83 .36 263.02 33 262.83 32.67 226.83 16.68 210.95 .37 226.83"/>
      <path class="cls-1" d="m81.95,69.59c.2,0,.36-.16.36-.36v-36.23c0-.2-.16-.36-.36-.36s-.36.16-.36.36v36.23c0,.2.16.36.36.36Z"/>
      <path class="cls-1" d="m147.22,105.46l-16.32,15.92-16.32-15.92.19-36.42,16.13-16.13s16.32,15.83,16.32,17.01c0,1.18,0,35.54,0,35.54Z"/>
      <path class="cls-1" d="m163.28,190.9l-16.32-16.32c-.14-.14-.14-.37,0-.52l16.32-16.32c.14-.14.37-.14.52,0l16.32,16.32c.14.14.14.37,0,.52l-16.32,16.32c-.07.07-.16.11-.26.11s-.19-.04-.26-.11Zm.26-32.38l-15.8,15.8,15.8,15.8,15.8-15.8-15.8-15.8Z"/>
      <path class="cls-1" d="m163.54,227.23c.09,0,.19-.04.26-.11l16.32-16.32c.07-.07.11-.16.11-.26v-36.23c0-.2-.16-.36-.36-.36s-.36.16-.36.36v36.08s-15.95,15.95-15.95,15.95l-15.95-15.95v-36.08c0-.2-.16-.36-.36-.36s-.36.16-.36.36v36.23c0,.1.04.19.11.26l16.32,16.32c.07.07.16.11.26.11Z"/>
      <path class="cls-1" d="m163.54,227.23c.2,0,.36-.16.36-.36v-36.23c0-.2-.16-.36-.36-.36s-.36.16-.36.36v36.23c0,.2.16.36.36.36Z"/>
      <path class="cls-1" d="m179.6,243.46l-16.32-16.32c-.14-.14-.14-.37,0-.52l16.32-16.32c.14-.14.37-.14.52,0l16.32,16.32c.14.14.14.37,0,.52l-16.32,16.32c-.07.07-.16.11-.26.11s-.19-.04-.26-.11Zm.26-32.38l-15.8,15.8,15.8,15.8,15.8-15.8-15.8-15.8Z"/>
      <path class="cls-1" d="m179.86,279.79c.09,0,.19-.04.26-.11l16.32-16.32c.07-.07.11-.16.11-.26v-36.23c0-.2-.16-.36-.36-.36s-.36.16-.36.36v36.08s-15.95,15.95-15.95,15.95l-15.95-15.95v-36.08c0-.2-.16-.36-.36-.36s-.36.16-.36.36v36.23c0,.1.04.19.11.26l16.32,16.32c.07.07.16.11.26.11Z"/>
      <path class="cls-1" d="m179.86,279.79c.2,0,.36-.16.36-.36v-36.23c0-.2-.16-.36-.36-.36s-.36.16-.36.36v36.23c0,.2.16.36.36.36Z"/>
      <path class="cls-1" d="m212.24,243.46l-16.32-16.32c-.14-.14-.14-.37,0-.52l16.32-16.32c.14-.14.37-.14.52,0l16.32,16.32c.14.14.14.37,0,.52l-16.32,16.32c-.07.07-.16.11-.26.11s-.19-.04-.26-.11Zm.26-32.38l-15.8,15.8,15.8,15.8,15.8-15.8-15.8-15.8Z"/>
      <path class="cls-1" d="m212.5,279.79c.09,0,.19-.04.26-.11l16.32-16.32c.07-.07.11-.16.11-.26v-36.23c0-.2-.16-.36-.36-.36s-.36.16-.36.36v36.08s-15.95,15.95-15.95,15.95l-15.95-15.95v-36.08c0-.2-.16-.36-.36-.36s-.36.16-.36.36v36.23c0,.1.04.19.11.26l16.32,16.32c.07.07.16.11.26.11Z"/>
      <path class="cls-1" d="m212.5,279.79c.2,0,.36-.16.36-.36v-36.23c0-.2-.16-.36-.36-.36s-.36.16-.36.36v36.23c0,.2.16.36.36.36Z"/>
      <path class="cls-1" d="m195.93,190.9l-16.32-16.32c-.14-.14-.14-.37,0-.52l16.32-16.32c.14-.14.37-.14.52,0l16.32,16.32c.14.14.14.37,0,.52l-16.32,16.32c-.07.07-.16.11-.26.11s-.19-.04-.26-.11Zm.26-32.38l-15.8,15.8,15.8,15.8,15.8-15.8-15.8-15.8Z"/>
      <path class="cls-1" d="m196.19,227.23c.09,0,.19-.04.26-.11l16.32-16.32c.07-.07.11-.16.11-.26v-36.23c0-.2-.16-.36-.36-.36s-.36.16-.36.36v36.08s-15.95,15.95-15.95,15.95l-15.95-15.95v-36.08c0-.2-.16-.36-.36-.36s-.36.16-.36.36v36.23c0,.1.04.19.11.26l16.32,16.32c.07.07.16.11.26.11Z"/>
      <path class="cls-1" d="m196.19,227.23c.2,0,.36-.16.36-.36v-36.23c0-.2-.16-.36-.36-.36s-.36.16-.36.36v36.23c0,.2.16.36.36.36Z"/>
      <path class="cls-1" d="m228.56,190.9l-16.32-16.32c-.14-.14-.14-.37,0-.52l16.32-16.32c.14-.14.37-.14.52,0l16.32,16.32c.14.14.14.37,0,.52l-16.32,16.32c-.07.07-.16.11-.26.11s-.19-.04-.26-.11Zm.26-32.38l-15.8,15.8,15.8,15.8,15.8-15.8-15.8-15.8Z"/>
      <path class="cls-1" d="m228.81,227.23c.09,0,.19-.04.26-.11l16.32-16.32c.07-.07.11-.16.11-.26v-36.23c0-.2-.16-.36-.36-.36s-.36.16-.36.36v36.08s-15.95,15.95-15.95,15.95l-15.95-15.95v-36.08c0-.2-.16-.36-.36-.36s-.36.16-.36.36v36.23c0,.1.04.19.11.26l16.32,16.32c.07.07.16.11.26.11Z"/>
      <path class="cls-1" d="m228.81,227.23c.2,0,.36-.16.36-.36v-36.23c0-.2-.16-.36-.36-.36s-.36.16-.36.36v36.23c0,.2.16.36.36.36Z"/>
      <path class="cls-1" d="m212.22,138.33l-16.32-16.32c-.14-.14-.14-.37,0-.52l16.32-16.32c.14-.14.37-.14.52,0l16.32,16.32c.14.14.14.37,0,.52l-16.32,16.32c-.07.07-.16.11-.26.11s-.19-.04-.26-.11Zm.26-32.38l-15.8,15.8,15.8,15.8,15.8-15.8-15.8-15.8Z"/>
      <path class="cls-1" d="m212.47,174.67c.09,0,.19-.04.26-.11l16.32-16.32c.07-.07.11-.16.11-.26v-36.23c0-.2-.16-.36-.36-.36s-.36.16-.36.36v36.08s-15.95,15.95-15.95,15.95l-15.95-15.95v-36.08c0-.2-.16-.36-.36-.36s-.36.16-.36.36v36.23c0,.1.04.19.11.26l16.32,16.32c.07.07.16.11.26.11Z"/>
      <path class="cls-1" d="m212.47,174.67c.2,0,.36-.16.36-.36v-36.23c0-.2-.16-.36-.36-.36s-.36.16-.36.36v36.23c0,.2.16.36.36.36Z"/>
      <path class="cls-1" d="m245.06,243.27l-16.32-16.32c-.14-.14-.14-.37,0-.52l16.32-16.32c.14-.14.37-.14.52,0l16.32,16.32c.14.14.14.37,0,.52l-16.32,16.32c-.07.07-.16.11-.26.11s-.19-.04-.26-.11Zm.26-32.38l-15.8,15.8,15.8,15.8,15.8-15.8-15.8-15.8Z"/>
      <path class="cls-1" d="m245.32,279.6c.09,0,.19-.04.26-.11l16.32-16.32c.07-.07.11-.16.11-.26v-36.23c0-.2-.16-.36-.36-.36s-.36.16-.36.36v36.08s-15.95,15.95-15.95,15.95l-15.95-15.95v-36.08c0-.2-.16-.36-.36-.36s-.36.16-.36.36v36.23c0,.1.04.19.11.26l16.32,16.32c.07.07.16.11.26.11Z"/>
      <path class="cls-1" d="m245.32,279.6c.2,0,.36-.16.36-.36v-36.23c0-.2-.16-.36-.36-.36s-.36.16-.36.36v36.23c0,.2.16.36.36.36Z"/>
      <path class="cls-1" d="m277.7,243.27l-16.32-16.32c-.14-.14-.14-.37,0-.52l16.32-16.32c.14-.14.37-.14.52,0l16.32,16.32c.14.14.14.37,0,.52l-16.32,16.32c-.07.07-.16.11-.26.11s-.19-.04-.26-.11Zm.26-32.38l-15.8,15.8,15.8,15.8,15.8-15.8-15.8-15.8Z"/>
      <path class="cls-1" d="m277.96,279.61c.09,0,.19-.04.26-.11l16.32-16.32c.07-.07.11-.16.11-.26v-36.23c0-.2-.16-.36-.36-.36s-.36.16-.36.36v36.08s-15.95,15.95-15.95,15.95l-15.95-15.95v-36.08c0-.2-.16-.36-.36-.36s-.36.16-.36.36v36.23c0,.1.04.19.11.26l16.32,16.32c.07.07.16.11.26.11Z"/>
      <path class="cls-1" d="m277.96,279.61c.2,0,.36-.16.36-.36v-36.23c0-.2-.16-.36-.36-.36s-.36.16-.36.36v36.23c0,.2.16.36.36.36Z"/>
      <path class="cls-1" d="m294.01,190.74l-16.32-16.32c-.14-.14-.14-.37,0-.52l16.32-16.32c.14-.14.37-.14.52,0l16.32,16.32c.14.14.14.37,0,.52l-16.32,16.32c-.07.07-.16.11-.26.11s-.19-.04-.26-.11Zm.26-32.38l-15.8,15.8,15.8,15.8,15.8-15.8-15.8-15.8Z"/>
      <path class="cls-1" d="m294.27,227.07c.09,0,.19-.04.26-.11l16.32-16.32c.07-.07.11-.16.11-.26v-36.23c0-.2-.16-.36-.36-.36s-.36.16-.36.36v36.08s-15.95,15.95-15.95,15.95l-15.95-15.95v-36.08c0-.2-.16-.36-.36-.36s-.36.16-.36.36v36.23c0,.1.04.19.11.26l16.32,16.32c.07.07.16.11.26.11Z"/>
      <path class="cls-1" d="m294.27,227.07c.2,0,.36-.16.36-.36v-36.23c0-.2-.16-.36-.36-.36s-.36.16-.36.36v36.23c0,.2.16.36.36.36Z"/>
      <path class="cls-1" d="m327.89,246.52l-14.87-14.87c-.13-.13-.13-.34,0-.47l14.87-14.87c.13-.13.34-.13.47,0l14.87,14.87c.13.13.13.34,0,.47l-14.87,14.87c-.06.06-.15.1-.24.1s-.17-.03-.24-.1Zm-36.56-42.33l-17.34,17.34,17.34,17.34,17.34-17.34-17.34-17.34Z"/>
      <path class="cls-1" d="m310.59,279.61c.09,0,.19-.04.26-.11l16.32-16.32c.07-.07.11-.16.11-.26v-36.23c0-.2-.16-.36-.36-.36s-.36.16-.36.36v36.08s-15.95,15.95-15.95,15.95l-15.95-15.95v-36.08c0-.2-.16-.36-.36-.36s-.36.16-.36.36v36.23c0,.1.04.19.11.26l16.32,16.32c.07.07.16.11.26.11Z"/>
      <path class="cls-1" d="m310.59,279.61c.2,0,.36-.16.36-.36v-36.23c0-.2-.16-.36-.36-.36s-.36.16-.36.36v36.23c0,.2.16.36.36.36Z"/>
      <path class="cls-1" d="m343.15,243.09l-16.32-16.32c-.14-.14-.14-.37,0-.52l16.32-16.32c.14-.14.37-.14.52,0l16.32,16.32c.14.14.14.37,0,.52l-16.32,16.32c-.07.07-.16.11-.26.11s-.19-.04-.26-.11Zm.26-32.38l-15.8,15.8,15.8,15.8,15.8-15.8-15.8-15.8Z"/>
      <path class="cls-1" d="m343.41,279.43c.09,0,.19-.04.26-.11l16.32-16.32c.07-.07.11-.16.11-.26v-36.23c0-.2-.16-.36-.36-.36s-.36.16-.36.36v36.08s-15.95,15.95-15.95,15.95l-15.95-15.95v-36.08c0-.2-.16-.36-.36-.36s-.36.16-.36.36v36.23c0,.1.04.19.11.26l16.32,16.32c.07.07.16.11.26.11Z"/>
      <path class="cls-1" d="m343.41,279.43c.2,0,.36-.16.36-.36v-36.23c0-.2-.16-.36-.36-.36s-.36.16-.36.36v36.23c0,.2.16.36.36.36Z"/>
      <path class="cls-1" d="m375.79,243.1l-16.32-16.32c-.14-.14-.14-.37,0-.52l16.32-16.32c.14-.14.37-.14.52,0l16.32,16.32c.14.14.14.37,0,.52l-16.32,16.32c-.07.07-.16.11-.26.11s-.19-.04-.26-.11Zm.26-32.38l-15.8,15.8,15.8,15.8,15.8-15.8-15.8-15.8Z"/>
      <path class="cls-1" d="m376.05,279.43c.09,0,.19-.04.26-.11l16.32-16.32c.07-.07.11-.16.11-.26v-36.23c0-.2-.16-.36-.36-.36s-.36.16-.36.36v36.08s-15.95,15.95-15.95,15.95l-15.95-15.95v-36.08c0-.2-.16-.36-.36-.36s-.36.16-.36.36v36.23c0,.1.04.19.11.26l16.32,16.32c.07.07.16.11.26.11Z"/>
      <path class="cls-1" d="m376.05,279.43c.2,0,.36-.16.36-.36v-36.23c0-.2-.16-.36-.36-.36s-.36.16-.36.36v36.23c0,.2.16.36.36.36Z"/>
      <polygon class="cls-1" points="294.27 157.94 310.52 174.16 310.52 210.65 294.22 226.8 277.96 210.36 277.96 174.16 294.27 157.94"/>
      <polygon class="cls-1" points="391.85 226.52 376.05 242.76 360.1 226.52 376.08 210.2 391.85 226.52"/>
      <polygon class="cls-1" points="228.35 121.8 212.55 138.04 196.6 121.8 212.58 105.48 228.35 121.8"/>
      <polygon class="cls-1" points="179.42 174.36 163.62 190.6 147.67 174.36 163.65 158.04 179.42 174.36"/>
    </g>
  </g>
</svg>