<?xml version="1.0" encoding="UTF-8"?>
<svg id="Capa_2" data-name="Capa 2" xmlns="http://www.w3.org/2000/svg" viewBox="0 0 392.73 279.79">
  <defs>
    <style>
      .cls-1 {
        fill: #f8bd00;
      }
    </style>
  </defs>
  <g id="Layer_3" data-name="Layer 3">
    <g>
      <path class="cls-1" d="m310.78,138.46c-.1,0-.19-.04-.26-.11l-16.32-16.32c-.07-.07-.11-.16-.11-.26s.04-.19.11-.26l16.32-16.32c.14-.14.37-.14.52,0l16.32,16.32c.14.14.14.37,0,.52l-16.32,16.32c-.07.07-.16.11-.26.11Zm-15.8-16.68l15.8,15.8,15.8-15.8-15.8-15.8-15.8,15.8Z"/>
      <path class="cls-1" d="m310.78,174.69c-.09,0-.19-.04-.26-.11l-16.32-16.32c-.07-.07-.11-.16-.11-.26v-36.23c0-.2.16-.36.36-.36s.36.16.36.36v36.08l15.95,15.95,15.95-15.95v-36.08c0-.2.16-.36.36-.36s.36.16.36.36v36.23c0,.1-.04.19-.11.26l-16.32,16.32c-.07.07-.16.11-.26.11Z"/>
      <path class="cls-1" d="m310.78,174.69c-.2,0-.36-.16-.36-.36v-36.23c0-.2.16-.36.36-.36s.36.16.36.36v36.23c0,.2-.16.36-.36.36Z"/>
      <polygon class="cls-1" points="310.78 138.09 294.46 121.78 294.46 158 310.78 174.32 310.78 138.09"/>
      <path class="cls-1" d="m294.46,85.91c-.09,0-.19-.04-.26-.11l-16.32-16.32c-.14-.14-.14-.37,0-.52l16.32-16.32c.14-.14.37-.14.52,0l16.32,16.32c.07.07.11.16.11.26s-.04.19-.11.26l-16.32,16.32c-.07.07-.16.11-.26.11Zm-15.8-16.68l15.8,15.8,15.8-15.8-15.8-15.8-15.8,15.8Z"/>
      <path class="cls-1" d="m278.14,33.36c-.09,0-.19-.04-.26-.11l-16.32-16.32c-.14-.14-.14-.37,0-.52L277.88.11c.14-.14.37-.14.52,0l16.32,16.32c.14.14.14.37,0,.52l-16.32,16.32c-.07.07-.16.11-.26.11Zm-15.8-16.68l15.8,15.8,15.8-15.8-15.8-15.8-15.8,15.8Z"/>
      <path class="cls-1" d="m310.78,33.36c-.09,0-.19-.04-.26-.11l-16.32-16.32c-.14-.14-.14-.37,0-.52L310.52.11c.14-.14.37-.14.52,0l16.32,16.32c.14.14.14.37,0,.52l-16.32,16.32c-.07.07-.16.11-.26.11Zm-15.8-16.68l15.8,15.8,15.8-15.8-15.8-15.8-15.8,15.8Z"/>
      <path class="cls-1" d="m294.46,122.14c-.09,0-.19-.04-.26-.11l-16.32-16.32c-.07-.07-.11-.16-.11-.26v-36.23c0-.2.16-.36.36-.36s.36.16.36.36v36.08l15.95,15.95,15.95-15.95v-10.06c0-.2.16-.36.36-.36s.36.16.36.36v10.21c0,.1-.04.19-.11.26l-16.32,16.32c-.07.07-.16.11-.26.11Z"/>
      <path class="cls-1" d="m310.78,88.75c-.2,0-.36-.16-.36-.36v-19.16c0-.2.16-.36.36-.36s.36.16.36.36v19.16c0,.2-.16.36-.36.36Z"/>
      <path class="cls-1" d="m294.46,122.14c-.2,0-.36-.16-.36-.36v-36.23c0-.2.16-.36.36-.36s.36.16.36.36v36.23c0,.2-.16.36-.36.36Z"/>
      <path class="cls-1" d="m359.73,191c-.09,0-.19-.04-.26-.11l-16.32-16.32c-.14-.14-.14-.37,0-.52l16.32-16.32c.14-.14.37-.14.52,0l16.32,16.32c.14.14.14.37,0,.52l-16.32,16.32c-.07.07-.16.11-.26.11Zm-15.8-16.68l15.8,15.8,15.8-15.8-15.8-15.8-15.8,15.8Z"/>
      <path class="cls-1" d="m359.73,227.23c-.09,0-.19-.04-.26-.11l-16.32-16.32c-.07-.07-.11-.16-.11-.26v-36.23c0-.2.16-.36.36-.36s.36.16.36.36v36.08l15.95,15.95,15.95-15.95v-36.08c0-.2.16-.36.36-.36s.36.16.36.36v36.23c0,.1-.04.19-.11.26l-16.32,16.32c-.07.07-.16.11-.26.11Z"/>
      <path class="cls-1" d="m359.73,227.23c-.2,0-.36-.16-.36-.36v-36.23c0-.2.16-.36.36-.36s.36.16.36.36v36.23c0,.2-.16.36-.36.36Z"/>
      <path class="cls-1" d="m376.05,138.46c-.1,0-.19-.04-.26-.11l-16.32-16.32c-.14-.14-.14-.37,0-.52l16.32-16.32c.14-.14.37-.14.52,0l16.32,16.32c.14.14.14.37,0,.52l-16.32,16.32c-.07.07-.16.11-.26.11Zm-15.8-16.68l15.8,15.8,15.8-15.8-15.8-15.8-15.8,15.8Z"/>
      <path class="cls-1" d="m376.05,174.69c-.09,0-.19-.04-.26-.11l-16.32-16.32c-.07-.07-.11-.16-.11-.26v-36.23c0-.2.16-.36.36-.36s.36.16.36.36v36.08l15.95,15.95,15.95-15.95v-36.08c0-.2.16-.36.36-.36s.36.16.36.36v36.23c0,.1-.04.19-.11.26l-16.32,16.32c-.07.07-.16.11-.26.11Z"/>
      <path class="cls-1" d="m392.37,191c-.09,0-.19-.04-.26-.11l-16.32-16.32c-.07-.07-.11-.16-.11-.26v-36.23c0-.2.16-.36.36-.36s.36.16.36.36v36.08l16.21,16.21c.14.14.14.37,0,.52-.07.07-.16.11-.26.11Z"/>
      <g>
        <rect class="cls-1" x="315.56" y="162.78" width="23.08" height="23.08" transform="translate(219.07 -180.23) rotate(45)"/>
        <path class="cls-1" d="m327.09,191c-.09,0-.19-.04-.26-.11l-16.32-16.32c-.14-.14-.14-.37,0-.52l16.32-16.32c.14-.14.37-.14.52,0l16.32,16.32c.14.14.14.37,0,.52l-16.32,16.32c-.07.07-.16.11-.26.11Zm-15.8-16.68l15.8,15.8,15.8-15.8-15.8-15.8-15.8,15.8Z"/>
      </g>
      <g>
        <polyline class="cls-1" points="392.37 190.64 376.05 174.32 392.37 158"/>
        <path class="cls-1" d="m392.37,191c-.09,0-.19-.04-.26-.11l-16.32-16.32c-.14-.14-.14-.37,0-.52l16.32-16.32c.14-.14.37-.14.52,0s.14.37,0,.52l-16.06,16.06,16.06,16.06c.14.14.14.37,0,.52-.07.07-.16.11-.26.11Z"/>
      </g>
      <g>
        <rect class="cls-1" x="315.56" y="57.69" width="23.08" height="23.08" transform="translate(144.76 -211.01) rotate(45)"/>
        <path class="cls-1" d="m327.09,85.91c-.09,0-.19-.04-.26-.11l-16.32-16.32c-.14-.14-.14-.37,0-.52l16.32-16.32c.14-.14.37-.14.52,0l16.32,16.32c.14.14.14.37,0,.52l-16.32,16.32c-.07.07-.16.11-.26.11Zm-15.8-16.68l15.8,15.8,15.8-15.8-15.8-15.8-15.8,15.8Z"/>
      </g>
      <path class="cls-1" d="m327.09,227.23c-.09,0-.19-.04-.26-.11l-16.32-16.32c-.07-.07-.11-.16-.11-.26v-36.23c0-.2.16-.36.36-.36s.36.16.36.36v36.08l15.95,15.95,15.95-15.95v-36.08c0-.2.16-.36.36-.36s.36.16.36.36v36.23c0,.1-.04.19-.11.26l-16.32,16.32c-.07.07-.16.11-.26.11Z"/>
      <path class="cls-1" d="m327.09,227.23c-.2,0-.36-.16-.36-.36v-36.23c0-.2.16-.36.36-.36s.36.16.36.36v36.23c0,.2-.16.36-.36.36Z"/>
      <path class="cls-1" d="m261.82,225.44c-.2,0-.36-.16-.36-.36v-36.23c0-.2.16-.36.36-.36s.36.16.36.36v36.23c0,.2-.16.36-.36.36Z"/>
      <path class="cls-1" d="m294.46,191c-.09,0-.19-.04-.26-.11l-16.32-16.32c-.14-.14-.14-.37,0-.52l16.32-16.32c.14-.14.37-.14.52,0l16.32,16.32c.07.07.11.16.11.26s-.04.19-.11.26l-16.32,16.32c-.07.07-.16.11-.26.11Zm-15.8-16.68l15.8,15.8,15.8-15.8-15.8-15.8-15.8,15.8Z"/>
      <path class="cls-1" d="m294.46,227.23c-.09,0-.19-.04-.26-.11l-16.32-16.32c-.07-.07-.11-.16-.11-.26v-36.23c0-.2.16-.36.36-.36s.36.16.36.36v36.08l15.95,15.95,15.95-15.95v-36.08c0-.2.16-.36.36-.36s.36.16.36.36v36.23c0,.1-.04.19-.11.26l-16.32,16.32c-.07.07-.16.11-.26.11Z"/>
      <path class="cls-1" d="m294.46,227.23c-.2,0-.36-.16-.36-.36v-36.23c0-.2.16-.36.36-.36s.36.16.36.36v36.23c0,.2-.16.36-.36.36Z"/>
      <polygon class="cls-1" points="294.46 190.64 278.14 174.32 278.14 210.55 294.46 226.87 294.46 190.64"/>
      <polygon class="cls-1" points="245.51 137.84 229.19 121.52 229.19 157.75 245.51 174.07 245.51 137.84"/>
      <polygon class="cls-1" points="163.92 190.64 147.6 174.32 147.6 210.55 163.92 226.87 163.92 190.64"/>
      <polygon class="cls-1" points="49.32 243.02 33 226.7 33 262.93 49.32 279.25 49.32 243.02"/>
      <polygon class="cls-1" points="114.77 242.83 131.09 226.51 131.09 262.74 114.77 279.06 114.77 242.83"/>
      <polygon class="cls-1" points="180.6 242.83 196.92 226.51 196.92 262.74 180.6 279.06 180.6 242.83"/>
      <polygon class="cls-1" points="196.19 190.64 212.51 174.32 212.51 210.55 196.19 226.87 196.19 190.64"/>
      <path class="cls-1" d="m278.14,138.46c-.1,0-.19-.04-.26-.11l-16.32-16.32c-.14-.14-.14-.37,0-.52l16.32-16.32c.14-.14.37-.14.52,0l16.32,16.32c.14.14.14.37,0,.52l-16.32,16.32c-.07.07-.16.11-.26.11Zm-15.8-16.68l15.8,15.8,15.8-15.8-15.8-15.8-15.8,15.8Z"/>
      <path class="cls-1" d="m278.14,174.69c-.09,0-.19-.04-.26-.11l-16.32-16.32c-.07-.07-.11-.16-.11-.26v-36.23c0-.2.16-.36.36-.36s.36.16.36.36v36.08l15.95,15.95,15.95-15.95v-36.08c0-.2.16-.36.36-.36s.36.16.36.36v36.23c0,.1-.04.19-.11.26l-16.32,16.32c-.07.07-.16.11-.26.11Z"/>
      <path class="cls-1" d="m343.41,138.46c-.1,0-.19-.04-.26-.11l-16.32-16.32c-.14-.14-.14-.37,0-.52l16.32-16.32c.14-.14.37-.14.52,0l16.32,16.32c.14.14.14.37,0,.52l-16.32,16.32c-.07.07-.16.11-.26.11Zm-15.8-16.68l15.8,15.8,15.8-15.8-15.8-15.8-15.8,15.8Z"/>
      <path class="cls-1" d="m343.41,174.69c-.09,0-.19-.04-.26-.11l-16.32-16.32c-.07-.07-.11-.16-.11-.26v-36.23c0-.2.16-.36.36-.36s.36.16.36.36v36.08l15.95,15.95,15.95-15.95v-36.08c0-.2.16-.36.36-.36s.36.16.36.36v36.23c0,.1-.04.19-.11.26l-16.32,16.32c-.07.07-.16.11-.26.11Z"/>
      <path class="cls-1" d="m261.82,85.91c-.09,0-.19-.04-.26-.11l-16.32-16.32c-.14-.14-.14-.37,0-.52l16.32-16.32c.14-.14.37-.14.52,0l16.32,16.32c.14.14.14.37,0,.52l-16.32,16.32c-.07.07-.16.11-.26.11Zm-15.8-16.68l15.8,15.8,15.8-15.8-15.8-15.8-15.8,15.8Z"/>
      <path class="cls-1" d="m261.82,122.14c-.09,0-.19-.04-.26-.11l-16.32-16.32c-.07-.07-.11-.16-.11-.26v-36.23c0-.2.16-.36.36-.36s.36.16.36.36v36.08l15.95,15.95,15.95-15.95v-36.08c0-.2.16-.36.36-.36s.36.16.36.36v36.23c0,.1-.04.19-.11.26l-16.32,16.32c-.07.07-.16.11-.26.11Z"/>
      <path class="cls-1" d="m229.19,122.14c-.09,0-.19-.04-.26-.11-.14-.14-.14-.37,0-.52l16.21-16.21v-36.08c0-.2.16-.36.36-.36s.36.16.36.36v36.23c0,.1-.04.19-.11.26l-16.32,16.32c-.07.07-.16.11-.26.11Z"/>
      <path class="cls-1" d="m278.14,69.59c-.09,0-.19-.04-.26-.11l-16.32-16.32c-.07-.07-.11-.16-.11-.26V16.68c0-.2.16-.36.36-.36s.36.16.36.36v36.08l15.95,15.95,15.95-15.95V16.68c0-.2.16-.36.36-.36s.36.16.36.36v36.23c0,.1-.04.19-.11.26l-16.32,16.32c-.07.07-.16.11-.26.11Z"/>
      <path class="cls-1" d="m310.78,33.36c-.09,0-.19-.04-.26-.11l-16.32-16.32c-.14-.14-.14-.37,0-.52s.37-.14.52,0l16.06,16.06,16.06-16.06c.14-.14.37-.14.52,0s.14.37,0,.52l-16.32,16.32c-.07.07-.16.11-.26.11Z"/>
      <path class="cls-1" d="m310.78,69.59c-.09,0-.19-.04-.26-.11l-16.32-16.32c-.07-.07-.11-.16-.11-.26V16.68c0-.2.16-.36.36-.36s.36.16.36.36v36.08l15.95,15.95,15.95-15.95V16.68c0-.2.16-.36.36-.36s.36.16.36.36v36.23c0,.1-.04.19-.11.26l-16.32,16.32c-.07.07-.16.11-.26.11Z"/>
      <path class="cls-1" d="m261.82,191c-.09,0-.19-.04-.26-.11l-16.32-16.32c-.14-.14-.14-.37,0-.52l16.32-16.32c.14-.14.37-.14.52,0l16.32,16.32c.14.14.14.37,0,.52l-16.32,16.32c-.07.07-.16.11-.26.11Zm-15.8-16.68l15.8,15.8,15.8-15.8-15.8-15.8-15.8,15.8Z"/>
      <path class="cls-1" d="m261.82,227.23c-.09,0-.19-.04-.26-.11l-16.32-16.32c-.07-.07-.11-.16-.11-.26v-36.23c0-.2.16-.36.36-.36s.36.16.36.36v36.08l15.95,15.95,15.95-15.95v-36.08c0-.2.16-.36.36-.36s.36.16.36.36v36.23c0,.1-.04.19-.11.26l-16.32,16.32c-.07.07-.16.11-.26.11Z"/>
      <path class="cls-1" d="m245.51,243.52c-.09,0-.19-.04-.26-.11l-16.32-16.32c-.14-.14-.14-.37,0-.52l16.32-16.32c.14-.14.37-.14.52,0l16.32,16.32c.14.14.14.37,0,.52l-16.32,16.32c-.07.07-.16.11-.26.11Zm-15.8-16.68l15.8,15.8,15.8-15.8-15.8-15.8-15.8,15.8Z"/>
      <path class="cls-1" d="m229.19,263.43c-.2,0-.36-.16-.36-.36v-36.23c0-.2.16-.36.36-.36s.36.16.36.36v36.23c0,.2-.16.36-.36.36Z"/>
      <path class="cls-1" d="m261.82,263.43c-.2,0-.36-.16-.36-.36v-36.23c0-.2.16-.36.36-.36s.36.16.36.36v36.23c0,.2-.16.36-.36.36Z"/>
      <path class="cls-1" d="m278.14,243.52c-.09,0-.19-.04-.26-.11l-16.32-16.32c-.14-.14-.14-.37,0-.52l16.32-16.32c.14-.14.37-.14.52,0l16.32,16.32c.14.14.14.37,0,.52l-16.32,16.32c-.07.07-.16.11-.26.11Zm-15.8-16.68l15.8,15.8,15.8-15.8-15.8-15.8-15.8,15.8Z"/>
      <path class="cls-1" d="m261.82,263.43c-.2,0-.36-.16-.36-.36v-36.23c0-.2.16-.36.36-.36s.36.16.36.36v36.23c0,.2-.16.36-.36.36Z"/>
      <path class="cls-1" d="m294.46,263.43c-.2,0-.36-.16-.36-.36v-36.23c0-.2.16-.36.36-.36s.36.16.36.36v36.23c0,.2-.16.36-.36.36Z"/>
      <path class="cls-1" d="m310.78,243.52c-.09,0-.19-.04-.26-.11l-16.32-16.32c-.14-.14-.14-.37,0-.52l16.32-16.32c.14-.14.37-.14.52,0l16.32,16.32c.14.14.14.37,0,.52l-16.32,16.32c-.07.07-.16.11-.26.11Zm-15.8-16.68l15.8,15.8,15.8-15.8-15.8-15.8-15.8,15.8Z"/>
      <path class="cls-1" d="m392.36,227.2c-.09,0-.19-.04-.26-.11l-16.06-16.06-16.06,16.06c-.14.14-.37.14-.52,0s-.14-.37,0-.52l16.32-16.32c.14-.14.37-.14.52,0l16.32,16.32c.14.14.14.37,0,.52-.07.07-.16.11-.26.11Z"/>
      <path class="cls-1" d="m294.46,263.43c-.2,0-.36-.16-.36-.36v-36.23c0-.2.16-.36.36-.36s.36.16.36.36v36.23c0,.2-.16.36-.36.36Z"/>
      <path class="cls-1" d="m327.09,263.43c-.2,0-.36-.16-.36-.36v-36.23c0-.2.16-.36.36-.36s.36.16.36.36v36.23c0,.2-.16.36-.36.36Z"/>
      <path class="cls-1" d="m327.09,85.91c-.09,0-.19-.04-.26-.11l-16.32-16.32c-.14-.14-.14-.37,0-.52l16.32-16.32c.14-.14.37-.14.52,0l16.32,16.32c.14.14.14.37,0,.52l-16.32,16.32c-.07.07-.16.11-.26.11Zm-15.8-16.68l15.8,15.8,15.8-15.8-15.8-15.8-15.8,15.8Z"/>
      <path class="cls-1" d="m327.09,122.14c-.1,0-.19-.04-.26-.11l-16.32-16.32c-.07-.07-.11-.16-.11-.26v-36.23c0-.2.16-.36.36-.36s.36.16.36.36v36.08l15.95,15.95,15.95-15.95v-36.08c0-.2.16-.36.36-.36s.36.16.36.36v36.23c0,.1-.04.19-.11.26l-16.32,16.32c-.07.07-.16.11-.26.11Z"/>
      <g>
        <rect class="cls-1" x="331.87" y="215.29" width="23.08" height="23.08" transform="translate(260.98 -176.39) rotate(45)"/>
        <path class="cls-1" d="m343.41,243.51c-.09,0-.19-.04-.26-.11l-16.32-16.32c-.14-.14-.14-.37,0-.52l16.32-16.32c.14-.14.38-.14.52,0l16.32,16.32c.14.14.14.37,0,.52l-16.32,16.32c-.07.07-.16.11-.26.11Zm-15.8-16.68l15.8,15.8,15.8-15.8-15.8-15.8-15.8,15.8Z"/>
      </g>
      <path class="cls-1" d="m327.09,263.43c-.2,0-.36-.16-.36-.36v-36.23c0-.2.16-.36.36-.36s.36.16.36.36v36.23c0,.2-.16.36-.36.36Z"/>
      <path class="cls-1" d="m359.73,263.43c-.2,0-.36-.16-.36-.36v-36.23c0-.2.16-.36.36-.36s.36.16.36.36v36.23c0,.2-.16.36-.36.36Z"/>
      <path class="cls-1" d="m278.14,174.69c-.2,0-.36-.16-.36-.36v-36.23c0-.2.16-.36.36-.36s.36.16.36.36v36.23c0,.2-.16.36-.36.36Z"/>
      <path class="cls-1" d="m245.51,138.46c-.1,0-.19-.04-.26-.11l-16.32-16.32c-.14-.14-.14-.37,0-.52l16.32-16.32c.14-.14.37-.14.52,0l16.32,16.32c.14.14.14.37,0,.52l-16.32,16.32c-.07.07-.16.11-.26.11Zm-15.8-16.68l15.8,15.8,15.8-15.8-15.8-15.8-15.8,15.8Z"/>
      <path class="cls-1" d="m245.51,174.69c-.09,0-.19-.04-.26-.11l-16.32-16.32c-.07-.07-.11-.16-.11-.26v-36.23c0-.2.16-.36.36-.36s.36.16.36.36v36.08l15.95,15.95,15.95-15.95v-36.08c0-.2.16-.36.36-.36s.36.16.36.36v36.23c0,.1-.04.19-.11.26l-16.32,16.32c-.07.07-.16.11-.26.11Z"/>
      <path class="cls-1" d="m245.51,174.69c-.2,0-.36-.16-.36-.36v-36.23c0-.2.16-.36.36-.36s.36.16.36.36v36.23c0,.2-.16.36-.36.36Z"/>
      <polygon class="cls-1" points="359.73 85.29 343.41 68.97 343.41 105.2 359.73 121.52 359.73 85.29"/>
      <polygon class="cls-1" points="310.78 33 294.46 16.68 294.46 52.91 310.78 69.23 310.78 33"/>
      <path class="cls-1" d="m359.73,85.91c-.09,0-.19-.04-.26-.11l-16.32-16.32c-.14-.14-.14-.37,0-.52l16.32-16.32c.14-.14.37-.14.52,0l16.32,16.32c.14.14.14.37,0,.52l-16.32,16.32c-.07.07-.16.11-.26.11Zm-15.8-16.68l15.8,15.8,15.8-15.8-15.8-15.8-15.8,15.8Z"/>
      <path class="cls-1" d="m359.73,122.14c-.09,0-.19-.04-.26-.11l-16.32-16.32c-.07-.07-.11-.16-.11-.26v-36.23c0-.2.16-.36.36-.36s.36.16.36.36v36.08l15.95,15.95,15.95-15.95v-36.08c0-.2.16-.36.36-.36s.36.16.36.36v36.23c0,.1-.04.19-.11.26l-16.32,16.32c-.07.07-.16.11-.26.11Z"/>
      <path class="cls-1" d="m359.73,122.14c-.2,0-.36-.16-.36-.36v-36.23c0-.2.16-.36.36-.36s.36.16.36.36v36.23c0,.2-.16.36-.36.36Z"/>
      <polygon class="cls-1" points="245.51 243.15 245.51 263.02 261.82 263.02 261.82 227.46 245.51 243.15"/>
      <polygon class="cls-1" points="392.36 226.83 392.37 263.02 359.73 262.83 360.06 226.83 376.05 210.95 392.36 226.83"/>
      <path class="cls-1" d="m310.78,69.59c-.2,0-.36-.16-.36-.36v-36.23c0-.2.16-.36.36-.36s.36.16.36.36v36.23c0,.2-.16.36-.36.36Z"/>
      <path class="cls-1" d="m245.51,105.46l16.32,15.92,16.32-15.92-.19-36.42-16.13-16.13s-16.32,15.83-16.32,17.01v35.54Z"/>
      <path class="cls-1" d="m229.19,191c-.09,0-.19-.04-.26-.11l-16.32-16.32c-.14-.14-.14-.37,0-.52l16.32-16.32c.14-.14.37-.14.52,0l16.32,16.32c.14.14.14.37,0,.52l-16.32,16.32c-.07.07-.16.11-.26.11Zm-15.8-16.68l15.8,15.8,15.8-15.8-15.8-15.8-15.8,15.8Z"/>
      <path class="cls-1" d="m229.19,227.23c-.09,0-.19-.04-.26-.11l-16.32-16.32c-.07-.07-.11-.16-.11-.26v-36.23c0-.2.16-.36.36-.36s.36.16.36.36v36.08l15.95,15.95,15.95-15.95v-36.08c0-.2.16-.36.36-.36s.36.16.36.36v36.23c0,.1-.04.19-.11.26l-16.32,16.32c-.07.07-.16.11-.26.11Z"/>
      <path class="cls-1" d="m229.19,227.23c-.2,0-.36-.16-.36-.36v-36.23c0-.2.16-.36.36-.36s.36.16.36.36v36.23c0,.2-.16.36-.36.36Z"/>
      <path class="cls-1" d="m212.87,243.56c-.09,0-.19-.04-.26-.11l-16.32-16.32c-.14-.14-.14-.37,0-.52l16.32-16.32c.14-.14.37-.14.52,0l16.32,16.32c.14.14.14.37,0,.52l-16.32,16.32c-.07.07-.16.11-.26.11Zm-15.8-16.68l15.8,15.8,15.8-15.8-15.8-15.8-15.8,15.8Z"/>
      <path class="cls-1" d="m212.87,279.79c-.09,0-.19-.04-.26-.11l-16.32-16.32c-.07-.07-.11-.16-.11-.26v-36.23c0-.2.16-.36.36-.36s.36.16.36.36v36.08l15.95,15.95,15.95-15.95v-36.08c0-.2.16-.36.36-.36s.36.16.36.36v36.23c0,.1-.04.19-.11.26l-16.32,16.32c-.07.07-.16.11-.26.11Z"/>
      <path class="cls-1" d="m212.87,279.79c-.2,0-.36-.16-.36-.36v-36.23c0-.2.16-.36.36-.36s.36.16.36.36v36.23c0,.2-.16.36-.36.36Z"/>
      <path class="cls-1" d="m180.23,243.56c-.09,0-.19-.04-.26-.11l-16.32-16.32c-.14-.14-.14-.37,0-.52l16.32-16.32c.14-.14.37-.14.52,0l16.32,16.32c.14.14.14.37,0,.52l-16.32,16.32c-.07.07-.16.11-.26.11Zm-15.8-16.68l15.8,15.8,15.8-15.8-15.8-15.8-15.8,15.8Z"/>
      <path class="cls-1" d="m180.23,279.79c-.09,0-.19-.04-.26-.11l-16.32-16.32c-.07-.07-.11-.16-.11-.26v-36.23c0-.2.16-.36.36-.36s.36.16.36.36v36.08l15.95,15.95,15.95-15.95v-36.08c0-.2.16-.36.36-.36s.36.16.36.36v36.23c0,.1-.04.19-.11.26l-16.32,16.32c-.07.07-.16.11-.26.11Z"/>
      <path class="cls-1" d="m180.23,279.79c-.2,0-.36-.16-.36-.36v-36.23c0-.2.16-.36.36-.36s.36.16.36.36v36.23c0,.2-.16.36-.36.36Z"/>
      <path class="cls-1" d="m196.54,191c-.09,0-.19-.04-.26-.11l-16.32-16.32c-.14-.14-.14-.37,0-.52l16.32-16.32c.14-.14.37-.14.52,0l16.32,16.32c.14.14.14.37,0,.52l-16.32,16.32c-.07.07-.16.11-.26.11Zm-15.8-16.68l15.8,15.8,15.8-15.8-15.8-15.8-15.8,15.8Z"/>
      <path class="cls-1" d="m196.54,227.23c-.09,0-.19-.04-.26-.11l-16.32-16.32c-.07-.07-.11-.16-.11-.26v-36.23c0-.2.16-.36.36-.36s.36.16.36.36v36.08l15.95,15.95,15.95-15.95v-36.08c0-.2.16-.36.36-.36s.36.16.36.36v36.23c0,.1-.04.19-.11.26l-16.32,16.32c-.07.07-.16.11-.26.11Z"/>
      <path class="cls-1" d="m196.54,227.23c-.2,0-.36-.16-.36-.36v-36.23c0-.2.16-.36.36-.36s.36.16.36.36v36.23c0,.2-.16.36-.36.36Z"/>
      <path class="cls-1" d="m163.92,191c-.09,0-.19-.04-.26-.11l-16.32-16.32c-.14-.14-.14-.37,0-.52l16.32-16.32c.14-.14.37-.14.52,0l16.32,16.32c.14.14.14.37,0,.52l-16.32,16.32c-.07.07-.16.11-.26.11Zm-15.8-16.68l15.8,15.8,15.8-15.8-15.8-15.8-15.8,15.8Z"/>
      <path class="cls-1" d="m163.92,227.23c-.09,0-.19-.04-.26-.11l-16.32-16.32c-.07-.07-.11-.16-.11-.26v-36.23c0-.2.16-.36.36-.36s.36.16.36.36v36.08l15.95,15.95,15.95-15.95v-36.08c0-.2.16-.36.36-.36s.36.16.36.36v36.23c0,.1-.04.19-.11.26l-16.32,16.32c-.07.07-.16.11-.26.11Z"/>
      <path class="cls-1" d="m163.92,227.23c-.2,0-.36-.16-.36-.36v-36.23c0-.2.16-.36.36-.36s.36.16.36.36v36.23c0,.2-.16.36-.36.36Z"/>
      <path class="cls-1" d="m180.26,138.44c-.09,0-.19-.04-.26-.11l-16.32-16.32c-.14-.14-.14-.37,0-.52l16.32-16.32c.14-.14.37-.14.52,0l16.32,16.32c.14.14.14.37,0,.52l-16.32,16.32c-.07.07-.16.11-.26.11Zm-15.8-16.68l15.8,15.8,15.8-15.8-15.8-15.8-15.8,15.8Z"/>
      <path class="cls-1" d="m180.26,174.67c-.09,0-.19-.04-.26-.11l-16.32-16.32c-.07-.07-.11-.16-.11-.26v-36.23c0-.2.16-.36.36-.36s.36.16.36.36v36.08l15.95,15.95,15.95-15.95v-36.08c0-.2.16-.36.36-.36s.36.16.36.36v36.23c0,.1-.04.19-.11.26l-16.32,16.32c-.07.07-.16.11-.26.11Z"/>
      <path class="cls-1" d="m180.26,174.67c-.2,0-.36-.16-.36-.36v-36.23c0-.2.16-.36.36-.36s.36.16.36.36v36.23c0,.2-.16.36-.36.36Z"/>
      <path class="cls-1" d="m147.41,243.37c-.09,0-.19-.04-.26-.11l-16.32-16.32c-.14-.14-.14-.37,0-.52l16.32-16.32c.14-.14.37-.14.52,0l16.32,16.32c.14.14.14.37,0,.52l-16.32,16.32c-.07.07-.16.11-.26.11Zm-15.8-16.68l15.8,15.8,15.8-15.8-15.8-15.8-15.8,15.8Z"/>
      <path class="cls-1" d="m147.41,279.6c-.09,0-.19-.04-.26-.11l-16.32-16.32c-.07-.07-.11-.16-.11-.26v-36.23c0-.2.16-.36.36-.36s.36.16.36.36v36.08l15.95,15.95,15.95-15.95v-36.08c0-.2.16-.36.36-.36s.36.16.36.36v36.23c0,.1-.04.19-.11.26l-16.32,16.32c-.07.07-.16.11-.26.11Z"/>
      <path class="cls-1" d="m147.41,279.6c-.2,0-.36-.16-.36-.36v-36.23c0-.2.16-.36.36-.36s.36.16.36.36v36.23c0,.2-.16.36-.36.36Z"/>
      <path class="cls-1" d="m114.77,243.38c-.09,0-.19-.04-.26-.11l-16.32-16.32c-.14-.14-.14-.37,0-.52l16.32-16.32c.14-.14.37-.14.52,0l16.32,16.32c.14.14.14.37,0,.52l-16.32,16.32c-.07.07-.16.11-.26.11Zm-15.8-16.68l15.8,15.8,15.8-15.8-15.8-15.8-15.8,15.8Z"/>
      <path class="cls-1" d="m114.77,279.61c-.09,0-.19-.04-.26-.11l-16.32-16.32c-.07-.07-.11-.16-.11-.26v-36.23c0-.2.16-.36.36-.36s.36.16.36.36v36.08l15.95,15.95,15.95-15.95v-36.08c0-.2.16-.36.36-.36s.36.16.36.36v36.23c0,.1-.04.19-.11.26l-16.32,16.32c-.07.07-.16.11-.26.11Z"/>
      <path class="cls-1" d="m114.77,279.61c-.2,0-.36-.16-.36-.36v-36.23c0-.2.16-.36.36-.36s.36.16.36.36v36.23c0,.2-.16.36-.36.36Z"/>
      <path class="cls-1" d="m98.46,190.84c-.09,0-.19-.04-.26-.11l-16.32-16.32c-.14-.14-.14-.37,0-.52l16.32-16.32c.14-.14.37-.14.52,0l16.32,16.32c.14.14.14.37,0,.52l-16.32,16.32c-.07.07-.16.11-.26.11Zm-15.8-16.68l15.8,15.8,15.8-15.8-15.8-15.8-15.8,15.8Z"/>
      <path class="cls-1" d="m98.46,227.07c-.09,0-.19-.04-.26-.11l-16.32-16.32c-.07-.07-.11-.16-.11-.26v-36.23c0-.2.16-.36.36-.36s.36.16.36.36v36.08l15.95,15.95,15.95-15.95v-36.08c0-.2.16-.36.36-.36s.36.16.36.36v36.23c0,.1-.04.19-.11.26l-16.32,16.32c-.07.07-.16.11-.26.11Z"/>
      <path class="cls-1" d="m98.46,227.07c-.2,0-.36-.16-.36-.36v-36.23c0-.2.16-.36.36-.36s.36.16.36.36v36.23c0,.2-.16.36-.36.36Z"/>
      <path class="cls-1" d="m82.14,243.39c-.09,0-.19-.04-.26-.11l-16.32-16.32c-.14-.14-.14-.37,0-.52l16.32-16.32c.14-.14.37-.14.52,0l16.32,16.32c.14.14.14.37,0,.52l-16.32,16.32c-.07.07-.16.11-.26.11Zm-15.8-16.68l15.8,15.8,15.8-15.8-15.8-15.8-15.8,15.8Z"/>
      <path class="cls-1" d="m82.14,279.61c-.09,0-.19-.04-.26-.11l-16.32-16.32c-.07-.07-.11-.16-.11-.26v-36.23c0-.2.16-.36.36-.36s.36.16.36.36v36.08l15.95,15.95,15.95-15.95v-36.08c0-.2.16-.36.36-.36s.36.16.36.36v36.23c0,.1-.04.19-.11.26l-16.32,16.32c-.07.07-.16.11-.26.11Z"/>
      <path class="cls-1" d="m82.14,279.61c-.2,0-.36-.16-.36-.36v-36.23c0-.2.16-.36.36-.36s.36.16.36.36v36.23c0,.2-.16.36-.36.36Z"/>
      <path class="cls-1" d="m49.32,243.2c-.09,0-.19-.04-.26-.11l-16.32-16.32c-.14-.14-.14-.37,0-.52l16.32-16.32c.14-.14.37-.14.52,0l16.32,16.32c.14.14.14.37,0,.52l-16.32,16.32c-.07.07-.16.11-.26.11Zm-15.8-16.68l15.8,15.8,15.8-15.8-15.8-15.8-15.8,15.8Z"/>
      <path class="cls-1" d="m49.32,279.43c-.09,0-.19-.04-.26-.11l-16.32-16.32c-.07-.07-.11-.16-.11-.26v-36.23c0-.2.16-.36.36-.36s.36.16.36.36v36.08l15.95,15.95,15.95-15.95v-36.08c0-.2.16-.36.36-.36s.36.16.36.36v36.23c0,.1-.04.19-.11.26l-16.32,16.32c-.07.07-.16.11-.26.11Z"/>
      <path class="cls-1" d="m49.32,279.43c-.2,0-.36-.16-.36-.36v-36.23c0-.2.16-.36.36-.36s.36.16.36.36v36.23c0,.2-.16.36-.36.36Z"/>
      <path class="cls-1" d="m16.68,243.2c-.09,0-.19-.04-.26-.11L.11,226.78c-.14-.14-.14-.37,0-.52l16.32-16.32c.14-.14.37-.14.52,0l16.32,16.32c.14.14.14.37,0,.52l-16.32,16.32c-.07.07-.16.11-.26.11ZM.88,226.52l15.8,15.8,15.8-15.8-15.8-15.8-15.8,15.8Z"/>
      <path class="cls-1" d="m16.68,279.43c-.09,0-.19-.04-.26-.11L.11,263.01c-.07-.07-.11-.16-.11-.26v-36.23c0-.2.16-.36.36-.36s.36.16.36.36v36.08l15.95,15.95,15.95-15.95v-36.08c0-.2.16-.36.36-.36s.36.16.36.36v36.23c0,.1-.04.19-.11.26l-16.32,16.32c-.07.07-.16.11-.26.11Z"/>
      <path class="cls-1" d="m16.68,279.43c-.2,0-.36-.16-.36-.36v-36.23c0-.2.16-.36.36-.36s.36.16.36.36v36.23c0,.2-.16.36-.36.36Z"/>
      <polygon class="cls-1" points="98.46 157.94 82.21 174.16 82.21 210.65 98.51 226.8 114.77 210.36 114.77 174.16 98.46 157.94"/>
      <polygon class="cls-1" points=".88 226.52 16.68 242.76 32.64 226.52 16.65 210.2 .88 226.52"/>
      <polygon class="cls-1" points="164.38 121.8 180.18 138.04 196.13 121.8 180.15 105.48 164.38 121.8"/>
      <polygon class="cls-1" points="213.31 174.36 229.11 190.6 245.06 174.36 229.08 158.04 213.31 174.36"/>
    </g>
  </g>
</svg>