<?xml version="1.0" encoding="UTF-8"?>
<svg id="Capa_2" data-name="Capa 2" xmlns="http://www.w3.org/2000/svg" viewBox="0 0 19.76 16.26">
  <defs>
    <style>
      .cls-1 {
        fill: #212322;
      }
    </style>
  </defs>
  <g id="Layer_3" data-name="Layer 3">
    <path class="cls-1" d="m19.68,1.95c-.63.28-1.32.46-2,.57.32-.05.79-.64.98-.87.29-.36.53-.77.66-1.21.02-.03.03-.08,0-.1-.04-.02-.07,0-.11,0-.76.4-1.54.7-2.37.91-.07.02-.12,0-.16-.04-.07-.08-.13-.15-.21-.21-.35-.3-.72-.53-1.15-.7-.56-.23-1.16-.32-1.76-.28-.58.04-1.15.2-1.67.47-.52.27-.98.65-1.35,1.1-.38.47-.66,1.02-.8,1.61-.14.57-.13,1.13-.04,1.7.01.1,0,.11-.08.1C6.37,4.5,3.67,3.34,1.48.84c-.1-.11-.15-.11-.22,0-.96,1.44-.49,3.74.7,4.88.16.15.32.3.5.44-.06.01-.86-.07-1.57-.44-.1-.06-.14-.03-.15.08,0,.16,0,.3.03.47.18,1.46,1.19,2.8,2.57,3.33.16.07.35.13.52.16-.31.07-.64.12-1.54.05-.11-.02-.16.03-.11.14.68,1.85,2.14,2.4,3.24,2.71.15.03.29.03.44.06,0,.01-.02.01-.03.03-.36.55-1.62.97-2.21,1.17-1.07.37-2.23.54-3.36.43-.18-.03-.22-.02-.27,0-.05.03,0,.07.05.12.23.15.46.29.7.41.72.38,1.46.68,2.24.9,4.03,1.11,8.58.3,11.6-2.71,2.38-2.36,3.21-5.62,3.21-8.88,0-.13.15-.2.24-.27.62-.46,1.12-1.02,1.58-1.64.1-.14.1-.26.1-.31v-.02c0-.05,0-.04-.08,0Z"/>
  </g>
</svg>