<?xml version="1.0" encoding="UTF-8"?>
<svg id="Capa_1" data-name="Capa 1" xmlns="http://www.w3.org/2000/svg" viewBox="0 0 47.1 47.1">
  <defs>
    <style>
      .cls-1 {
        fill: #221f20;
      }
    </style>
  </defs>
  <path class="cls-1" d="m23.55,0C10.57,0,0,10.57,0,23.55s10.57,23.55,23.55,23.55,23.55-10.57,23.55-23.55S36.54,0,23.55,0Zm0,46.42C10.94,46.42.68,36.16.68,23.55S10.94.68,23.55.68s22.87,10.26,22.87,22.87-10.26,22.87-22.87,22.87Z"/>
  <path class="cls-1" d="m10,16.26l.2-.53c.02-.07.09-.11.16-.11h1.66c.07,0,.13.04.16.11l.19.53c.02.07.09.11.16.11h.71c.12,0,.2-.12.16-.23l-1.57-4.09c-.02-.06-.09-.11-.16-.11h-.95c-.07,0-.13.04-.16.11l-1.58,4.09c-.04.11.04.23.16.23h.71c.07,0,.13-.04.16-.11Zm1.03-2.94c.05-.15.26-.15.32,0l.45,1.24c.04.11-.04.23-.16.23h-.9c-.12,0-.2-.12-.16-.23l.45-1.24Z"/>
  <path class="cls-1" d="m38,30.17h-1.09c-.06,0-.11.04-.13.09l-.91,2.26c-.05.12-.22.12-.26,0l-.91-2.26c-.02-.05-.07-.09-.13-.09h-1.08c-.08,0-.14.06-.14.14v4.14c0,.08.06.14.14.14h.66c.08,0,.14-.06.14-.14v-2.23c0-.16.21-.2.27-.05l.97,2.42h.41l.97-2.42c.06-.14.27-.1.27.05v2.23c0,.08.06.14.14.14h.67c.08,0,.14-.06.14-.14v-4.14c0-.08-.06-.14-.14-.14Z"/>
  <path class="cls-1" d="m25.04,28.82c-1.1,0-1.27-.84-1.28-.94l-.78.11c.04.26.17.63.45.95-.21.41-.77,1.27-1.91,1.43v-1.36c.38-.21.63-.61.63-1.08,0-.69-.56-1.24-1.24-1.24s-1.24.56-1.24,1.24c0,.63.46,1.14,1.07,1.22v2.02h.39c1.56,0,2.52-1,2.95-1.77.26.12.58.19.97.19.01,0,.03,0,.04,0v-.78h-.04Z"/>
  <path class="cls-1" d="m31.48,24.28s.04-.03.06-.04c1.48-.68,2.08-1.83,2.09-1.85l-.7-.35c-.03.06-.43.8-1.4,1.34l-.74-1.78c.26-.23.43-.56.43-.93,0-.53-.34-.98-.8-1.16.76-.11,1.31-1.13,1.31-2.47s-.77-2.48-1.75-2.48-1.75,1.09-1.75,2.48h.78c0-.94.45-1.61.88-1.69v4.09c-.65.04-1.16.58-1.16,1.23s.56,1.24,1.24,1.24c.03,0,.06,0,.09,0l.75,1.79c-.73.25-1.69.35-2.91.12-.13-.7-.61-1.22-.64-1.24l-.56.54s.48.5.45,1.07c-.01.29-.15.55-.43.8l.52.58c.32-.29.53-.61.63-.96.47.08.91.12,1.32.12.9,0,1.63-.18,2.23-.44.02,0,.04,0,.06-.01Z"/>
  <path class="cls-1" d="m27.85,19.26c0-1.39-.77-2.48-1.75-2.48s-1.75,1.09-1.75,2.48h.78c0-.94.45-1.61.88-1.69v4.17h.39c.82,0,1.44-1.07,1.44-2.48Z"/>
  <path class="cls-1" d="m21.13,25.62h.39v-4.17c.43.08.88.75.88,1.69h.78c0-1.39-.77-2.48-1.75-2.48s-1.75,1.09-1.75,2.48.62,2.48,1.44,2.48Z"/>
  <path class="cls-1" d="m19.83,25.66h0s-.06-.08-.1-.13c-1.22-1.45-2.79-1.37-3.49-1.1l.28.73s.24-.08.56-.1c-.07.04-.15.09-.23.14-1.24.86-.38,2.68-.34,2.76l.71-.34s0-.01-.01-.02l1.03-.47-.69-1.42c.8-.39,1.38.1,1.58.33.06.07.13.15.19.24l.64-.45c-.04-.06-.08-.11-.12-.16Z"/>
  <path class="cls-1" d="m35.93,22.63c0-2-1.1-3.85-2.89-4.9.03-.24.04-.46.04-.68,0-1.49-.56-2.86-1.49-3.92,0,0,0-.01,0-.02,0-.01-.07-.08-.16-.17-.35-.37-.75-.7-1.19-.98l.37-3.65c.02-.16-.07-.32-.21-.39-.14-.07-.32-.05-.44.06l-3.31,3c-2.44.06-4.53,1.47-5.52,3.49l-3.98-.66c-.14-.02-.29.03-.38.15-.09.12-.1.27-.04.41l1.44,2.91c-2.32.37-4.21,1.97-4.93,4.09l-3.51,3.13c-.12.11-.16.28-.1.43.06.15.2.25.37.25h2.11s.26.05.26.43v3.5c0,.34.28.62.62.62s.62-.28.62-.62v-2.72s.06-.25.23,0l-.04-.08c.07.11.13.22.2.33.02.03.05.07.07.1,0,0,0,0,.01.01.35.48.78.92,1.27,1.29,0,.12-.01.23-.01.34,0,2.06,1.15,3.95,3.03,4.98v2.79c0,.62.5,1.13,1.13,1.13s1.13-.5,1.13-1.13v-2.05c.74.1,1.47.06,2.17-.09v3.5c0,.62.5,1.13,1.13,1.13s1.13-.51,1.13-1.13v-4.46c1.58-1.09,2.52-2.81,2.52-4.67,0-.14,0-.28-.02-.42.72.28,1.5.42,2.29.42,3.37,0,6.11-2.59,6.11-5.77Zm-8.7,4.35l-.74-.39.17.82c.07.33.1.66.1.99,0,1.65-.87,3.19-2.33,4.13l-.18.12v4.88c0,.19-.15.34-.34.34s-.34-.15-.34-.34v-4.53l-.5.15c-.88.26-1.83.31-2.76.12l-.47-.1v3c0,.19-.15.34-.34.34s-.34-.15-.34-.34v-3.26l-.22-.11c-1.73-.87-2.81-2.56-2.81-4.39,0-.16,0-.32.03-.49l.02-.23-.19-.13c-.52-.37-.97-.82-1.32-1.32-.22-.35-1.13-1.94.26-3.08,1.32-1.08,3.45.03,3.47.04.15.08.33.05.46-.06.12-.12.16-.3.08-.45-.04-.09-1.02-2.19.59-3.32.54-.38,1.14-.5,1.78-.36.9.2,1.68.88,2.04,1.4.04.07.08.12.1.16.57,1.31.59,2.56.59,2.58h.78c0-.11-.02-2.11-1.17-3.85-.38-.84-.75-2.12-.18-3.14.92-1.61,3.86-.89,3.89-.89.11.03.23,0,.33-.07.09-.07.15-.18.16-.29,0-.05.09-1.25,1.24-1.66.95-.33,1.56.07,1.79.27.88.94,1.42,2.18,1.42,3.54,0,.25-.02.52-.07.83l-.05.28.25.13c1.68.88,2.72,2.55,2.72,4.35,0,2.75-2.39,4.99-5.33,4.99-.91,0-1.8-.22-2.59-.63Z"/>
</svg>