<?xml version="1.0" encoding="UTF-8"?>
<svg id="Capa_1" data-name="Capa 1" xmlns="http://www.w3.org/2000/svg" viewBox="0 0 75.93 30.44">
  <defs>
    <style>
      .cls-1 {
        fill: #212322;
      }
    </style>
  </defs>
  <path class="cls-1" d="m0,16.58c.11,0,.21,0,.32,0,25.09,0,50.19,0,75.28,0h.33v1.79c-.11,0-.22,0-.33,0H9.83c-3.19,0-6.37,0-9.56,0-.09,0-.18,0-.28,0,0-.6,0-1.19,0-1.79Z"/>
  <path class="cls-1" d="m18.82,30.44c-.23-.04-.46-.08-.69-.12-1.98-.41-3.07-1.77-3.32-3.64-.13-1.03,0-2.02.42-2.98.46-1.05,1.23-1.76,2.33-2.09,1.22-.36,2.43-.35,3.59.2.9.43,1.33,1.21,1.58,2.15-.35.1-.68.19-1.02.28-.03-.07-.06-.13-.07-.19-.28-.97-.95-1.5-1.93-1.66-.59-.1-1.18-.05-1.75.13-.98.32-1.54,1.03-1.82,1.98-.26.88-.26,1.78-.03,2.67.34,1.32,1.29,2.02,2.63,2.19,1.04.13,1.98-.17,2.84-.75.13-.08.17-.18.17-.33,0-.47,0-.94,0-1.43h-2.57v-1.01h3.7v.23c0,.93,0,1.86,0,2.79,0,.15-.04.25-.17.34-.88.65-1.85,1.11-2.96,1.21-.04,0-.08.02-.12.03h-.81Z"/>
  <path class="cls-1" d="m32.75,9.45c.93-.09,1.8-.17,2.65-.25.12.37.21.71.35,1.03.35.85,1,1.34,1.9,1.5.73.13,1.45.12,2.14-.14.72-.27,1.22-.75,1.31-1.55.06-.56-.18-1-.67-1.25-.34-.18-.71-.32-1.08-.43-1.02-.3-2.06-.55-3.07-.87-.66-.2-1.28-.5-1.8-.98-1.95-1.77-1.49-4.82.88-5.95,1.11-.53,2.3-.61,3.5-.54.86.05,1.7.19,2.47.59,1.4.74,2.06,1.93,2.14,3.51-.92.04-1.82.08-2.74.12-.04-.14-.07-.27-.1-.4-.23-.88-.79-1.39-1.69-1.52-.72-.1-1.43-.09-2.12.17-.13.05-.26.11-.38.19-.75.47-.76,1.43.02,1.85.54.29,1.14.48,1.73.65,1.09.31,2.21.53,3.26.98,1.16.51,1.99,1.32,2.29,2.57.58,2.41-.71,4.52-3.12,5.12-1.36.34-2.75.35-4.12.05-1.9-.42-3.06-1.62-3.54-3.49-.08-.31-.13-.64-.2-.98Z"/>
  <path class="cls-1" d="m57.54,3.99c-.9.22-1.79.43-2.7.64-.03-.08-.05-.16-.08-.24-.42-1.37-1.66-2.18-3.09-2.04-1.48.15-2.48.96-2.86,2.4-.42,1.58-.4,3.17.05,4.73.33,1.14,1.07,1.91,2.25,2.19,1.57.37,2.9-.34,3.51-1.83.13-.31.22-.63.33-.97.87.27,1.74.55,2.65.84-.11.32-.21.63-.33.93-.83,2.07-2.35,3.21-4.57,3.42-1.47.14-2.87-.07-4.13-.89-1.37-.88-2.22-2.14-2.6-3.71-.44-1.86-.42-3.72.25-5.52.89-2.37,2.64-3.67,5.17-3.92,1.04-.1,2.06,0,3.04.37,1.66.63,2.65,1.86,3.11,3.59Z"/>
  <path class="cls-1" d="m31.02,3.99c-.9.22-1.79.43-2.67.64-.1-.26-.18-.51-.3-.74-.53-1.06-1.66-1.66-2.88-1.53-1.48.15-2.47.94-2.86,2.37-.44,1.6-.42,3.23.06,4.81.66,2.15,2.83,2.59,4.21,1.97.9-.4,1.37-1.15,1.67-2.05.06-.19.11-.38.18-.6.88.28,1.76.56,2.66.84-.08.25-.15.49-.24.72-.52,1.4-1.35,2.52-2.75,3.15-.98.44-2.02.57-3.08.51-1.95-.1-3.51-.95-4.64-2.55-.6-.86-.93-1.83-1.07-2.86-.19-1.37-.14-2.73.2-4.08C20.17,1.98,22.23.25,24.93.03c1.23-.1,2.41.04,3.52.6,1.31.66,2.35,2.01,2.57,3.36Z"/>
  <path class="cls-1" d="m53.27,21.54s.04-.02.06-.02c1.61.02,3.21,0,4.82.06.99.04,1.7.56,1.99,1.53.28.93.14,1.79-.6,2.48-.43.4-.97.56-1.52.66-.05,0-.09.02-.14.03,0,.03,0,.05.01.05.64.31,1.08.84,1.47,1.42.54.82,1.06,1.64,1.63,2.52-.21,0-.37,0-.54,0-.3,0-.66.08-.9-.05-.23-.12-.34-.47-.5-.72-.47-.71-.92-1.41-1.4-2.11-.14-.21-.32-.4-.5-.58-.24-.23-.53-.4-.87-.41-.61-.02-1.22,0-1.85,0v3.86h-1.14v-8.72Zm1.14,3.83c.06,0,.1.02.15.02.79,0,1.58.02,2.36,0,.39-.01.8-.05,1.18-.15.62-.16.98-.7.98-1.34,0-.63-.37-1.13-.99-1.3-.3-.08-.63-.12-.95-.12-.83-.02-1.66,0-2.49,0-.08,0-.15,0-.23.01v2.89Z"/>
  <path class="cls-1" d="m39.66,30.28c-.37,0-.72,0-1.08,0-.07,0-.16-.1-.21-.17-.89-1.32-1.77-2.64-2.66-3.96-.56-.84-1.12-1.68-1.68-2.51-.04-.06-.08-.11-.16-.22v6.86h-1.1v-8.74c.37,0,.74,0,1.11,0,.06,0,.13.09.18.16,1.22,1.82,2.44,3.65,3.66,5.47.23.34.46.68.69,1.03.04.06.08.11.16.21v-6.86h1.09v8.74Z"/>
  <path class="cls-1" d="m11.99,28.33v-6.8h1.09v8.74c-.38,0-.75,0-1.11,0-.07,0-.14-.11-.19-.18-1.32-1.98-2.65-3.95-3.97-5.93-.16-.23-.31-.47-.51-.69v6.79h-1.09v-8.74c.37,0,.74,0,1.1,0,.07,0,.14.11.19.18,1.44,2.15,2.88,4.3,4.32,6.44.04.06.09.13.13.19.02,0,.03,0,.05-.01Z"/>
  <path class="cls-1" d="m51.06,26.26h-4.83v2.99h5.37v1.01h-6.52v-8.72h6.31v.99h-5.16v2.7h4.83v1.02Z"/>
  <path class="cls-1" d="m24.64,21.53h6.31v1h-5.16v2.7h4.83v1.02h-4.83v3h5.35v1.01h-6.5v-8.72Z"/>
  <path class="cls-1" d="m64.54,30.28c.16-.42.31-.81.46-1.2.94-2.44,1.88-4.89,2.81-7.33.07-.17.15-.24.33-.23.28.02.55,0,.83,0,.12,0,.19.03.24.15,1.15,2.82,2.31,5.65,3.46,8.47.01.03.02.07.04.13-.43,0-.83,0-1.24,0-.04,0-.1-.11-.13-.17-.29-.75-.59-1.51-.87-2.26-.06-.16-.14-.21-.31-.21-1.08,0-2.16,0-3.24,0-.16,0-.24.05-.29.2-.27.76-.55,1.51-.81,2.26-.05.15-.13.21-.29.2-.32-.01-.65,0-1,0Zm5.49-3.6c-.52-1.41-1.03-2.8-1.55-4.2-.3,1.46-.95,2.79-1.42,4.2h2.97Z"/>
  <path class="cls-1" d="m2.99,30.26v-8.73h1.12v8.73h-1.12Z"/>
  <path class="cls-1" d="m42.97,30.27h-1.12v-8.73h1.12v8.73Z"/>
  <path class="cls-1" d="m62.3,30.26v-8.73h1.12v8.73h-1.12Z"/>
</svg>