<?xml version="1.0" encoding="UTF-8"?>
<svg id="Capa_2" data-name="Capa 2" xmlns="http://www.w3.org/2000/svg" viewBox="0 0 90.13 33.73">
  <defs>
    <style>
      .cls-1 {
        fill: #212322;
      }
    </style>
  </defs>
  <g id="Layer_1" data-name="Layer 1">
    <g>
      <rect class="cls-1" x="41.22" width="4.17" height="33.73" rx=".47" ry=".47"/>
      <path class="cls-1" d="m79.05,14.31l3.07-13.74c.07-.29-.16-.57-.46-.57h-3.21c-.22,0-.41.15-.46.36l-3.25,14.55c-.05.21-.24.36-.46.36h-3.96c-.26,0-.47-.21-.47-.47V.47c0-.26-.21-.47-.47-.47h-3.24c-.26,0-.47.21-.47.47v32.8c0,.26.21.47.47.47h3.24c.26,0,.47-.21.47-.47v-15.59c0-.26.21-.47.47-.47h3.97c.22,0,.41.16.46.37l3.23,15.78c.04.22.24.37.46.37h3.22c.3,0,.52-.27.46-.56l-3.08-15.05c-.03-.15-.14-.28-.29-.34l-3.94-1.54v-.19l3.93-1.41c.15-.05.26-.18.3-.34Z"/>
      <path class="cls-1" d="m10.55,0H.47c-.26,0-.47.21-.47.47v32.8c0,.26.21.47.47.47h10.62l.21-.21,3.28-3.28c.09-.09.14-.21.14-.33v-11.39c0-.18-.1-.34-.26-.42l-2.89-1.42c-.36-.18-.34-.7.04-.85l2.82-1.11c.18-.07.3-.24.3-.43V3.61c0-.12-.05-.24-.14-.33L11.43.14c-.09-.09-.21-.14-.33-.14h-.56Zm0,2.39v12.43c0,.26-.21.47-.47.47h-5.44c-.26,0-.47-.21-.47-.47V2.39c0-.26.21-.47.47-.47h5.44c.26,0,.47.21.47.47Zm-6.38,28.95v-13.67c0-.26.21-.47.47-.47h5.44c.26,0,.47.21.47.47v13.67c0,.26-.21.47-.47.47h-5.44c-.26,0-.47-.21-.47-.47Z"/>
      <path class="cls-1" d="m54.08,0h0s-1.24,1.24-1.24,1.24l-2.25,2.25c-.09.09-.14.21-.14.33v26.64c0,.12.05.24.14.33l2.25,2.25.56.56c.09.09.21.14.33.14h7.55c.26,0,.47-.21.47-.47v-.99c0-.26-.21-.47-.47-.47h-6.19c-.26,0-.47-.21-.47-.47V2.39c0-.26.21-.47.47-.47h6.19c.26,0,.47-.21.47-.47V.47c0-.26-.21-.47-.47-.47h-7.2Z"/>
      <rect class="cls-1" x="85.96" y="29.56" width="4.17" height="4.17" rx=".47" ry=".47"/>
      <path class="cls-1" d="m32.03,0h-10.83c-.26,0-.47.21-.47.47v32.8c0,.26.21.47.47.47h3.24c.26,0,.47-.21.47-.47v-15.59c0-.26.21-.47.47-.47h5.44c.26,0,.47.21.47.47v15.59c0,.26.21.47.47.47h3.24c.26,0,.47-.21.47-.47v-14.74c0-.18-.1-.34-.26-.42l-2.89-1.42c-.36-.18-.34-.7.04-.85l2.82-1.11c.18-.07.3-.24.3-.43V3.58c0-.12-.05-.24-.14-.33l-3.25-3.25h-.04Zm-7.13,14.82V2.39c0-.26.21-.47.47-.47h5.44c.26,0,.47.21.47.47v12.43c0,.26-.21.47-.47.47h-5.44c-.26,0-.47-.21-.47-.47Z"/>
    </g>
  </g>
</svg>