<?xml version="1.0" encoding="UTF-8"?>
<svg id="Capa_1" data-name="Capa 1" xmlns="http://www.w3.org/2000/svg" viewBox="0 0 392.73 262.74">
  <defs>
    <style>
      .cls-1 {
        fill: #f8bd00;
      }
    </style>
  </defs>
  <path class="cls-1" d="m0,226.52s0,0,0,0H0v36.22s.87,0,.87,0l-.14-.14v-35.2s15.59,15.59,15.59,15.59v19.75s.73,0,.73,0v-19.75s15.59-15.59,15.59-15.59v35.2s-.14.14-.14.14h1.03s15.44,0,15.44,0h.73s0-19.76,0-19.76l15.59-15.59v35.2s-.15.15-.15.15h1.07s0-35.56,0-35.56l15.65,15.65c-.04.06-.06.12-.06.19v19.72s.73,0,.73,0v-19.37s15.58-15.58,15.58-15.58v34.95s0,0,0,0h.72s0,0,0,0v-35.16s15.58,15.58,15.58,15.58v19.58s.36,0,.36,0h.36s15.59,0,15.59,0h.73s0,0,0,0v-35.17s15.59,15.59,15.59,15.59v19.58s.73,0,.73,0v-19.58s15.59-15.59,15.59-15.59v35.17s.19,0,.19,0h.73s0-34.98,0-34.98l15.59,15.59v19.39s.73,0,.73,0v-19.39h0s0,19.39,0,19.39h15.59s0,0,0,0h.73s0,0,0,0h0v-34.98s15.59,15.59,15.59,15.59v19.39s.73,0,.73,0v-19.39s15.59-15.59,15.59-15.59v34.98s0,0,0,0h.73s0,0,0,0v-35.03s15.69,15.69,15.69,15.69c.07.07.16.11.26.11h0v19.23s15.95,0,15.95,0h.73s0-35,0-35v-.03s15.69,15.69,15.69,15.69c.07.07.16.11.26.11s.19-.04.26-.11l15.69-15.69v35.03s0,0,0,0h.73s0,0,0,0v-35.03s15.69,15.69,15.69,15.69c.07.07.16.11.26.11s.19-.04.26-.11l15.69-15.69v35.03s0,0,0,0h.73s0,0,0,0v-35.03s15.69,15.69,15.69,15.69c.07.07.16.11.26.11s.19-.04.26-.11l15.69-15.69v35.03s.37,0,.37,0h.36s32.64,0,32.64,0v-35.43s-.19-.19-.19-.19c.03-.02.06-.01.08-.03.14-.14.14-.37,0-.52l-16.21-16.21v-35.16s15.7,15.69,15.7,15.69c.07.07.16.11.26.11s.19-.04.26-.11c0,0,0,0,0,0l.11.11v-.36s0-32.64,0-32.64v-.36s0,0,0,0v-35.87c0-.1-.04-.19-.11-.26,0,0,0,0,0,0h0s-16.21-16.21-16.21-16.21v-36.08c0-.1-.04-.19-.11-.26h0s0,0,0,0l-16.32-16.32c-.14-.14-.37-.14-.52,0l-16.06,16.06-15.95-15.95V16.68c0-.1-.04-.19-.11-.26,0,0,0,0,0,0h0S311.04.11,311.04.11c-.14-.14-.37-.14-.52,0l-16.06,16.06L278.4.11c-.14-.14-.37-.14-.52,0l-16.32,16.32h0s0,0,0,0c-.07.07-.11.16-.11.26v36.08s-16.21,16.21-16.21,16.21h0s0,0,0,0c-.07.07-.11.16-.11.26v36.08s-16.21,16.21-16.21,16.21h0s0,0,0,0c-.07.07-.11.16-.11.26v36.08s-15.96,15.96-15.96,15.96l-15.93-15.93v-36.12c0-.1-.04-.19-.11-.26,0,0,0,0,0,0h0s-16.32-16.32-16.32-16.32c-.14-.14-.37-.14-.52,0l-16.32,16.32h0s0,0,0,0c-.07.07-.11.16-.11.26v36.07s-16.23,16.23-16.23,16.23h0s0,0,0,0c-.07.07-.11.16-.11.26v35.76s-.06.01-.08.03l-16.06,16.06-15.94-15.94v-36.07c0-.1-.04-.19-.11-.26,0,0,0,0,0,0h0s-16.32-16.32-16.32-16.32c-.14-.14-.37-.14-.52,0l-16.32,16.32h0s0,0,0,0c-.07.07-.11.16-.11.26v35.26s-16.36,16.36-16.36,16.36l-15.84-15.84c-.14-.14-.37-.14-.52,0l-16.06,16.06-16.06-16.06c-.14-.14-.37-.14-.52,0L.11,226.26h0s0,0,0,0c-.07.07-.11.16-.11.26ZM326.73,17.56v35.2s-15.59,15.59-15.59,15.59v-35.2s15.59-15.59,15.59-15.59Zm-162.45,173.23l15.58-15.58v35.2s-15.58,15.58-15.58,15.58v-35.2Zm16.34-52.56l15.59-15.59v35.19s-15.59,15.59-15.59,15.59v-35.19Zm-.02,36.98l15.58,15.58v35.2s-15.58-15.58-15.58-15.58v-35.2Zm65.27,0l15.59,15.59v35.16s-15.59-15.59-15.59-15.59v-35.16Zm65.27,0l15.59,15.59v35.16s-15.59-15.59-15.59-15.59v-35.16Zm48.22,50.75l-15.59-15.59v-35.16s15.59,15.59,15.59,15.59v35.16Zm-97.18-103.29l15.59,15.59v35.2s-15.59-15.59-15.59-15.59v-35.2Zm48.95,15.59l15.59-15.59v35.2s-15.59,15.59-15.59,15.59v-35.2Zm0-68.13l15.69,15.69c.07.07.16.11.26.11s.19-.04.26-.11l15.69-15.69v35.19s-15.95,15.95-15.95,15.95l-15.95-15.95v-10.06s0-6.86,0-6.86v-18.28Zm48.07,51.66l-15.8,15.8-15.8-15.8,15.8-15.8,15.8,15.8Zm-65.12,36.08l-15.59,15.59v-35.2s15.59-15.59,15.59-15.59v35.2Zm-15.95-51.88l15.8,15.8-15.8,15.8-15.8-15.8,7.9-7.9,7.9-7.9Zm16.83,15.8l7.9-7.9,7.9-7.9,15.8,15.8-15.8,15.8-15.8-15.8Zm64.39,36.08l-15.95,15.95-15.95-15.95v-35.2s15.69,15.7,15.69,15.7c.07.07.16.11.26.11s.19-.04.26-.11l15.69-15.7v35.2Zm-16.32,52.51l-15.59,15.59v-35.16s15.59-15.59,15.59-15.59v35.16Zm-32.79-36.04l-15.8,15.8-15.8-15.8,15.8-15.8,7.9,7.9,7.9,7.9Zm-32.64,0l-15.8,15.8-15.8-15.8,15.8-15.8,15.8,15.8Zm.88-104.21l15.59,15.59v35.2s-15.59-15.59-15.59-15.59v-35.2Zm16.32,15.59l15.59-15.59v18.28s0,6.86,0,6.86v10.06s-4.67,4.67-4.67,4.67l-10.91,10.91v-35.2Zm80.71,88.62l-15.8,15.8-15.8-15.8,15.8-15.8,15.8,15.8Zm-65.12,36.04l-15.59,15.59v-35.16s15.59-15.59,15.59-15.59v35.16Zm-32.64,0l-15.59,15.59v-35.16s15.59-15.59,15.59-15.59v35.16Zm-32.64,0l-15.59,15.59v-35.16s15.59-15.59,15.59-15.59v35.16Zm.73-72.12l15.59-15.59v35.2s-15.59,15.59-15.59,15.59v-35.2Zm32.79-69.02l15.8-15.8,15.8,15.8-15.8,15.8-15.8-15.8Zm81.44,16.47l15.59-15.59v35.2s-15.59,15.59-15.59,15.59v-35.2Zm0,36.96l15.59,15.59v35.2s-15.59-15.59-15.59-15.59v-35.2Zm16.32,15.59l15.59-15.59v35.2s-15.59,15.59-15.59,15.59v-35.2Zm-.73,36.96v35.16s-15.59,15.59-15.59,15.59v-35.16s15.59-15.59,15.59-15.59Zm-211.76-16.68l15.8,15.8-15.8,15.8-15.8-15.8,15.8-15.8Zm.39-35.88l15.59,15.59v35.2s-15.59-15.59-15.59-15.59v-35.2Zm48.04,51.68l-15.8,15.8-15.8-15.8,15.8-15.8,15.8,15.8Zm.89.88l15.59,15.59v35.2s-15.59-15.59-15.59-15.59v-35.2Zm32.27-69.23l15.8,15.8-15.8,15.8-15.8-15.8,15.8-15.8Zm16.68-88.41l15.69,15.69c.07.07.16.11.26.11s.19-.04.26-.11l15.69-15.69v35.2s-8.01,8.01-8.01,8.01l-7.94,7.94-15.95-15.95V17.56Zm31.75-.88l-15.8,15.8-15.8-15.8,15.8-15.8,15.8,15.8Zm32.64,0l-15.8,15.8-15.8-15.8,15.8-15.8,15.8,15.8Zm48.95,52.55l-15.8,15.8-15.8-15.8,15.8-15.8,15.8,15.8Zm16.32,52.55l-15.8,15.8-15.8-15.8,15.8-15.8,15.8,15.8Zm-96.86,105.07l15.78-15.78,15.78,15.78-15.78,15.78-15.78-15.78Zm-32.64,0l15.78-15.78,15.78,15.78-15.78,15.78-15.78-15.78Zm-32.64,0l15.78-15.78,15.78,15.78-15.78,15.78-15.78-15.78Zm-32.65.03l15.8-15.8,15.8,15.8-15.8,15.8-15.8-15.8Zm-32.64,0l15.8-15.8,15.8,15.8-15.8,15.8-15.8-15.8Zm-32.82-.19l15.8-15.8,15.8,15.8-15.8,15.8-15.8-15.8Zm-32.53.12l.71-.71-.1-.1,15.09-15.09,15.79,15.79-15.8,15.8-15.69-15.69Zm-49.76,15.51l-15.8-15.8,15.8-15.8,15.8,15.8-15.8,15.8Z"/>
</svg>