<?xml version="1.0" encoding="UTF-8"?>
<svg id="Capa_1" data-name="Capa 1" xmlns="http://www.w3.org/2000/svg" viewBox="0 0 392.73 262.74">
  <defs>
    <style>
      .cls-1 {
        fill: #f8bd00;
      }
    </style>
  </defs>
  <path class="cls-1" d="m392.62,226.26s0,0,0,0h0s-16.32-16.32-16.32-16.32c-.14-.14-.37-.14-.52,0l-16.06,16.06-16.06-16.06c-.14-.14-.37-.14-.52,0l-15.84,15.84-16.36-16.36v-35.26c0-.1-.04-.19-.11-.26,0,0,0,0,0,0h0s-16.32-16.32-16.32-16.32c-.14-.14-.37-.14-.52,0l-16.32,16.32h0s0,0,0,0c-.07.07-.11.16-.11.26v36.07l-15.94,15.94-16.06-16.06s-.06-.02-.08-.03v-35.76c0-.1-.04-.19-.11-.26,0,0,0,0,0,0h0s-16.23-16.23-16.23-16.23v-36.07c0-.1-.04-.19-.11-.26,0,0,0,0,0,0h0s-16.32-16.32-16.32-16.32c-.14-.14-.37-.14-.52,0l-16.32,16.32h0s0,0,0,0c-.07.07-.11.16-.11.26v36.12l-15.93,15.93-15.96-15.96v-36.08c0-.1-.04-.19-.11-.26,0,0,0,0,0,0h0s-16.21-16.21-16.21-16.21v-36.08c0-.1-.04-.19-.11-.26,0,0,0,0,0,0h0s-16.21-16.21-16.21-16.21V16.68c0-.1-.04-.19-.11-.26,0,0,0,0,0,0h0S114.85.11,114.85.11c-.14-.14-.37-.14-.52,0l-16.06,16.06L82.21.11c-.14-.14-.37-.14-.52,0l-16.32,16.32h0s0,0,0,0c-.07.07-.11.16-.11.26v36.08l-15.95,15.95-16.06-16.06c-.14-.14-.37-.14-.52,0l-16.32,16.32h0c-.07.07-.11.16-.11.26v36.08L.11,121.52h0s0,0,0,0c-.07.07-.11.16-.11.26v35.87h0s0,.36,0,.36v33l.11-.11s0,0,0,0c.07.07.16.11.26.11s.19-.04.26-.11l15.7-15.69v35.16L.11,226.58c-.14.14-.14.37,0,.52.02.02.06.02.08.03l-.19.19v35.43h33.37v-35.03l15.69,15.69c.07.07.16.11.26.11s.19-.04.26-.11l15.69-15.69v35.03h.73v-35.03l15.69,15.69c.07.07.16.11.26.11s.19-.04.26-.11l15.69-15.69v35.03h.73v-35.03l15.69,15.69c.07.07.16.11.26.11s.19-.04.26-.11l15.69-15.69v35.03h16.68v-19.23h0c.09,0,.19-.04.26-.11l15.69-15.69v35.03h.73v-34.98l15.59,15.59v19.39h.73v-19.39l15.59-15.59v34.98h16.32v-19.4h0v19.4h.73v-19.39l15.59-15.59v34.98h.92v-35.17l15.59,15.59v19.58h.73v-19.58l15.59-15.59v35.17h17.05v-19.58l15.58-15.58v35.16h.74v-34.95l15.58,15.58v19.37h.73v-19.72c0-.07-.03-.14-.06-.19l15.65-15.65v35.56h1.07l-.15-.15v-35.2l15.59,15.59v19.76h17.2l-.14-.14v-35.2l15.59,15.59v19.75h.73v-19.75l15.59-15.59v35.2l-.14.14h.87v-36.22h0s0,0,0,0c0-.1-.04-.19-.11-.26ZM81.59,33.15v35.2l-15.59-15.59V17.56l15.59,15.59Zm146.86,192.84l-15.58-15.58v-35.2l15.58,15.58v35.2Zm-16.34-52.57l-15.59-15.59v-35.19l15.59,15.59v35.19Zm.02,36.99l-15.58,15.58v-35.2l15.58-15.58v35.2Zm-65.27-.04l-15.59,15.59v-35.16l15.59-15.59v35.16Zm-65.27,0l-15.59,15.59v-35.16l15.59-15.59v35.16Zm-48.22-19.57l15.59-15.59v35.16l-15.59,15.59v-35.16Zm97.18-32.94l-15.59,15.59v-35.2l15.59-15.59v35.2Zm-48.95,15.59l-15.59-15.59v-35.2l15.59,15.59v35.2Zm0-85.05v16.92l-15.95,15.95-15.95-15.95v-35.19l15.69,15.69c.07.07.16.11.26.11s.19-.04.26-.11l15.69-15.69v18.28Zm-32.27,17.59l15.8,15.8-15.8,15.8-15.8-15.8,15.8-15.8Zm49.32,16.68l15.59,15.59v35.2l-15.59-15.59v-35.2Zm23.85-8.78l7.9,7.9-15.8,15.8-15.8-15.8,15.8-15.8,7.9,7.9Zm-40.54,23.7l-15.8-15.8,15.8-15.8,7.9,7.9,7.9,7.9-15.8,15.8Zm-48.59-14.92l15.69,15.7c.07.07.16.11.26.11s.19-.04.26-.11l15.69-15.7v35.2l-15.95,15.95-15.95-15.95v-35.2Zm16.32,52.55l15.59,15.59v35.16l-15.59-15.59v-35.16Zm40.69-8.78l7.9-7.9,15.8,15.8-15.8,15.8-15.8-15.8,7.9-7.9Zm40.54-7.9l15.8,15.8-15.8,15.8-15.8-15.8,15.8-15.8Zm-16.68-53.21l-15.59,15.59v-35.2l15.59-15.59v35.2Zm-16.32,15.59l-10.91-10.91-4.67-4.67v-35.2l15.59,15.59v35.2Zm-64.91,37.63l15.8,15.8-15.8,15.8-15.8-15.8,15.8-15.8Zm49.32,16.68l15.59,15.59v35.16l-15.59-15.59v-35.16Zm32.64,0l15.59,15.59v35.16l-15.59-15.59v-35.16Zm32.64,0l15.59,15.59v35.16l-15.59-15.59v-35.16Zm-.73-1.76l-15.59-15.59v-35.2l15.59,15.59v35.2Zm-48.59-88.41l-15.8-15.8,15.8-15.8,15.8,15.8-15.8,15.8Zm-65.63,35.86l-15.59-15.59v-35.2l15.59,15.59v35.2Zm0,36.96l-15.59,15.59v-35.2l15.59-15.59v35.2Zm-16.32,15.59l-15.59-15.59v-35.2l15.59,15.59v35.2Zm16.32,17.35v35.16l-15.59-15.59v-35.16l15.59,15.59Zm211.98-16.47l-15.8,15.8-15.8-15.8,15.8-15.8,15.8,15.8Zm-16.19-16.49l-15.59,15.59v-35.2l15.59-15.59v35.2Zm-32.25.69l15.8,15.8-15.8,15.8-15.8-15.8,15.8-15.8Zm-16.68,51.87l-15.59,15.59v-35.2l15.59-15.59v35.2Zm-16.47-88.62l-15.8,15.8-15.8-15.8,15.8-15.8,15.8,15.8Zm-32.48-69.02l-15.95,15.95-7.94-7.94-8.01-8.01V17.56l15.69,15.69c.07.07.16.11.26.11s.19-.04.26-.11l15.69-15.69v35.2ZM114.59.88l15.8,15.8-15.8,15.8-15.8-15.8L114.59.88Zm-32.64,0l15.8,15.8-15.8,15.8-15.8-15.8L81.95.88Zm-48.95,52.55l15.8,15.8-15.8,15.8-15.8-15.8,15.8-15.8Zm-16.32,52.55l15.8,15.8-15.8,15.8L.88,121.78l15.8-15.8Zm65.27,136.66l-15.78-15.78,15.78-15.78,15.78,15.78-15.78,15.78Zm32.64,0l-15.78-15.78,15.78-15.78,15.78,15.78-15.78,15.78Zm32.64,0l-15.78-15.78,15.78-15.78,15.78,15.78-15.78,15.78Zm32.63.05l-15.8-15.8,15.8-15.8,15.8,15.8-15.8,15.8Zm32.64,0l-15.8-15.8,15.8-15.8,15.8,15.8-15.8,15.8Zm32.82-.19l-15.8-15.8,15.8-15.8,15.8,15.8-15.8,15.8Zm32.64,0l-15.8-15.8,15.79-15.79,15.09,15.09-.1.1.71.71-15.69,15.69Zm49.65-15.98l15.8-15.8,15.8,15.8-15.8,15.8-15.8-15.8Z"/>
</svg>