<?xml version="1.0" encoding="UTF-8"?>
<svg id="Capa_1" data-name="Capa 1" xmlns="http://www.w3.org/2000/svg" viewBox="0 0 16.11 16.11">
  <defs>
    <style>
      .cls-1 {
        fill: #212322;
      }
    </style>
  </defs>
  <path class="cls-1" d="m12.32,2.88c-.52,0-.94.42-.94.94s.42.94.94.94.94-.42.94-.94-.42-.94-.94-.94Z"/>
  <path class="cls-1" d="m8.12,4.09c-2.19,0-3.97,1.78-3.97,3.97s1.78,3.97,3.97,3.97,3.97-1.78,3.97-3.97-1.78-3.97-3.97-3.97Zm0,6.51c-1.4,0-2.54-1.14-2.54-2.54s1.14-2.54,2.54-2.54,2.54,1.14,2.54,2.54-1.14,2.54-2.54,2.54Z"/>
  <path class="cls-1" d="m11.27,16.11h-6.43c-2.67,0-4.84-2.17-4.84-4.84v-6.43C0,2.17,2.17,0,4.84,0h6.43c2.67,0,4.84,2.17,4.84,4.84v6.43c0,2.67-2.17,4.84-4.84,4.84ZM4.84,1.52c-1.83,0-3.32,1.49-3.32,3.32v6.43c0,1.83,1.49,3.32,3.32,3.32h6.43c1.83,0,3.32-1.49,3.32-3.32v-6.43c0-1.83-1.49-3.32-3.32-3.32h-6.43Z"/>
</svg>