<?xml version="1.0" encoding="UTF-8"?>
<svg id="Capa_1" data-name="Capa 1" xmlns="http://www.w3.org/2000/svg" viewBox="0 0 61.15 66.14">
  <defs>
    <style>
      .cls-1 {
        fill: #f8bd00;
      }
    </style>
  </defs>
  <path class="cls-1" d="m60.65,0H26.12s0,0,0,0c-.05,0-.1.01-.15.03-.01,0-.03,0-.04,0,0,0-.02.01-.02.02-.05.03-.1.05-.14.09,0,0,0,0,0,0L.14,26.76s-.02.04-.04.06c-.02.03-.05.07-.07.1-.02.04-.02.08-.03.12,0,.02-.01.04-.01.06v26.72c0,.28.22.5.5.5h16.54v11.32c0,.22.14.41.35.48.05.02.1.02.15.02.16,0,.31-.07.4-.21l8.42-11.61h15c.28,0,.5-.22.5-.5v-25.17l5.91,8.15c.1.13.25.21.4.21.05,0,.1,0,.15-.02.21-.07.35-.26.35-.48v-8.9h11.96c.28,0,.5-.22.5-.5V.5c0-.28-.22-.5-.5-.5ZM26.12,53.33c-.16,0-.31.08-.4.21l-7.67,10.57v-10.28c0-.28-.22-.5-.5-.5H1v-25.72h25.06s.04.01.06.01h14.75v25.71h-14.75Zm34.03-26.71h-11.96c-.28,0-.5.22-.5.5v7.86l-5.91-8.15s0,0-.01,0c-.09-.12-.23-.21-.4-.21h-14.75V1h33.53v25.62Z"/>
  <path class="cls-1" d="m8.85,37.86c-1.52,0-2.75,1.23-2.75,2.75s1.23,2.75,2.75,2.75,2.75-1.23,2.75-2.75-1.23-2.75-2.75-2.75Zm0,4.51c-.97,0-1.75-.79-1.75-1.75s.79-1.75,1.75-1.75,1.75.79,1.75,1.75-.79,1.75-1.75,1.75Z"/>
  <path class="cls-1" d="m20.93,37.86c-1.52,0-2.75,1.23-2.75,2.75s1.23,2.75,2.75,2.75,2.75-1.23,2.75-2.75-1.23-2.75-2.75-2.75Zm0,4.51c-.97,0-1.75-.79-1.75-1.75s.79-1.75,1.75-1.75,1.75.79,1.75,1.75-.79,1.75-1.75,1.75Z"/>
  <path class="cls-1" d="m33.02,37.86c-1.52,0-2.75,1.23-2.75,2.75s1.23,2.75,2.75,2.75,2.75-1.23,2.75-2.75-1.23-2.75-2.75-2.75Zm0,4.51c-.97,0-1.75-.79-1.75-1.75s.79-1.75,1.75-1.75,1.75.79,1.75,1.75-.79,1.75-1.75,1.75Z"/>
</svg>