<?xml version="1.0" encoding="UTF-8"?>
<svg id="Capa_1" data-name="Capa 1" xmlns="http://www.w3.org/2000/svg" viewBox="0 0 160.52 219.3">
  <defs>
    <style>
      .cls-1 {
        fill: #f8bd00;
      }
    </style>
  </defs>
  <path class="cls-1" d="m119.44,60.04l-.16-.16-36.58-36.58-36.79,36.79v.5l.02.07v80.16l36.77,36.77,36.77-36.77v-23.14l-5.69-5.82.05-.08,5.64-8.83v-13.12h-.03v-29.78Zm-71.96.29l35.21-35.21,35.21,35.21-35.21,35.21-35.21-35.21Zm70.7,42.23l-.02.03-6.02,9.43,6.04,6.18v22.08l-34.84,34.84v-78.39l34.84-34.84v40.67Z"/>
  <path class="cls-1" d="m97.62,113.89c1.68.69,3.51.31,4.79-.98,3.49-3.54,5.41-8.22,5.41-13.19v-15.08l-12.93,13.09v12.1c0,1.81,1.04,3.37,2.72,4.06Z"/>
  <path class="cls-1" d="m107.83,126.74c0-1.8-1.03-3.34-2.69-4.02-.55-.23-1.12-.34-1.68-.34-1.13,0-2.22.45-3.06,1.3-3.54,3.59-5.49,8.34-5.49,13.38v15.92l12.93-13.09v-13.16Z"/>
  <path class="cls-1" d="m158.75,23.12L135.63,0l-23.12,23.12,23.12,23.12,23.12-23.12Zm-23.12-21l21,21-21,21-21-21,21-21Z"/>
  <path class="cls-1" d="m145.39,99.22l-15.13,15.13,15.13,15.13,15.13-15.13-15.13-15.13Zm-13.01,15.13l13.01-13.01,13.01,13.01-13.01,13.01-13.01-13.01Z"/>
  <rect class="cls-1" x="37.83" y="182.01" width="19.65" height="19.65" transform="translate(-121.69 89.89) rotate(-45)"/>
  <rect class="cls-1" x="100.65" y="205.8" width="11.19" height="11.19" transform="translate(-118.36 137.04) rotate(-45)"/>
  <rect class="cls-1" x="7.19" y="7.95" width="34.7" height="34.7" transform="translate(-10.7 24.76) rotate(-45)"/>
</svg>