<?xml version="1.0" encoding="UTF-8"?>
<svg id="Capa_1" data-name="Capa 1" xmlns="http://www.w3.org/2000/svg" viewBox="0 0 61 61">
  <defs>
    <style>
      .cls-1 {
        fill: #f8bd00;
      }
    </style>
  </defs>
  <path class="cls-1" d="m60.96,9.49c-.08-.19-.26-.31-.46-.31h-7.98L60.54,1.17c.2-.2.2-.51,0-.71s-.51-.2-.71,0l-8.02,8.02V.5c0-.2-.12-.38-.31-.46-.19-.08-.4-.03-.54.11l-13.84,13.84c-.09.09-.15.22-.15.35v8.98l-.14.14c-3.91-3.74-9.21-6.04-15.04-6.04C9.78,17.41,0,27.19,0,39.21s9.78,21.79,21.79,21.79,21.79-9.78,21.79-21.79c0-5.83-2.3-11.13-6.05-15.04l.14-.14h8.98c.13,0,.26-.05.35-.15l13.84-13.84c.14-.14.19-.36.11-.54Zm-22.99,5.06L50.82,1.71v7.77l-12.84,12.84v-7.77Zm-16.53,24.3c-.2.2-.2.51,0,.71.1.1.23.15.35.15s.26-.05.35-.15l.35-.35h3.25c0,2.18-1.77,3.95-3.95,3.95s-3.95-1.77-3.95-3.95,1.77-3.95,3.95-3.95c.91,0,1.74.32,2.41.84l-2.76,2.76Zm3.47-3.47c-.85-.7-1.93-1.13-3.11-1.13-2.73,0-4.95,2.22-4.95,4.95s2.22,4.95,4.95,4.95,4.95-2.22,4.95-4.95h4.61c0,5.27-4.29,9.57-9.57,9.57s-9.57-4.29-9.57-9.57,4.29-9.57,9.57-9.57c2.46,0,4.69.94,6.39,2.47l-3.28,3.28Zm3.98-3.98c-1.88-1.71-4.36-2.76-7.1-2.76-5.83,0-10.57,4.74-10.57,10.57s4.74,10.57,10.57,10.57,10.57-4.74,10.57-10.57h4.61c0,8.37-6.81,15.18-15.18,15.18s-15.18-6.81-15.18-15.18,6.81-15.18,15.18-15.18c4.01,0,7.64,1.57,10.36,4.11l-3.26,3.26Zm-7.1,28.6c-11.47,0-20.79-9.33-20.79-20.79s9.33-20.79,20.79-20.79c5.55,0,10.59,2.2,14.33,5.76l-3.26,3.26c-2.9-2.72-6.78-4.41-11.06-4.41-8.92,0-16.18,7.26-16.18,16.18s7.26,16.18,16.18,16.18,16.18-7.26,16.18-16.18h4.61c0,11.47-9.33,20.79-20.79,20.79Zm15.1-35.04c-.05,0-.1,0-.16,0l.09-.09s.05.05.07.08Z"/>
</svg>