<?xml version="1.0" encoding="UTF-8"?>
<svg id="Capa_1" data-name="Capa 1" xmlns="http://www.w3.org/2000/svg" viewBox="0 0 61.78 73.7">
  <defs>
    <style>
      .cls-1 {
        fill: #f8bd00;
      }
    </style>
  </defs>
  <path class="cls-1" d="m61.78,30.89l-8.59-8.59v-4.11c0-2.97-2.41-5.38-5.38-5.38h-4.11L30.89,0l-12.81,12.81h-1.86c-2.97,0-5.38,2.42-5.38,5.38v1.86L0,30.89l.38.38v42.42h61.02V31.27l.38-.38Zm-12.21,9.96v-18.32h1.61l8.35,8.36-9.96,9.96Zm2.14-22.66v2.86h-30.11v-2.86c0-1.53-.64-2.92-1.67-3.9h27.88c2.15,0,3.9,1.75,3.9,3.9ZM30.89,2.25l10.56,10.56h-21.13L30.89,2.25Zm-14.67,12.05c2.15,0,3.9,1.75,3.9,3.9v4.34h27.97v19.8l-17.2,17.2-18.57-18.57v-22.78c0-2.15,1.75-3.9,3.9-3.9Zm-5.38,21.25v3.94l-.1-.1.1-3.84Zm10.03,16.22L1.87,70.76v-38l19,19ZM1.87,71.74l.47.47h-.47v-.47Zm58.05.47H2.51l19.41-19.4,8.98,8.98,9.36-9.36,19.66,19.66v.13Z"/>
</svg>