<?xml version="1.0" encoding="UTF-8"?>
<svg id="Capa_1" data-name="Capa 1" xmlns="http://www.w3.org/2000/svg" viewBox="0 0 34.8 15.41">
  <defs>
    <style>
      .cls-1 {
        fill: #212322;
      }
    </style>
  </defs>
  <path class="cls-1" d="m34.3,5.28h-3.77L24.77.13c-.09-.08-.21-.13-.33-.13h-8.82c-.11,0-.21.03-.29.1l-7.04,5.12-4.49.24c-.82.04-1.59.33-2.24.83-.97.75-1.55,1.94-1.55,3.17v2.9c0,.28.22.5.5.5h4c.24,1.44,1.49,2.55,3,2.55s2.75-1.1,2.99-2.55h13.02c.24,1.44,1.49,2.55,3,2.55s2.75-1.1,2.99-2.55h1.55c2.07,0,3.76-1.69,3.76-3.76v-3.32c0-.28-.22-.5-.5-.5ZM2.16,7.08c.05-.04.11-.07.16-.1v1.38c0,.33-.27.6-.6.6h-.67c.13-.73.51-1.41,1.11-1.88Zm5.33,7.33c-1.13,0-2.05-.92-2.05-2.05s.92-2.05,2.05-2.05,2.05.92,2.05,2.05-.92,2.05-2.05,2.05Zm19.01,0c-1.13,0-2.05-.92-2.05-2.05s.92-2.05,2.05-2.05,2.05.92,2.05,2.05-.92,2.05-2.05,2.05Zm2.99-2.55c-.24-1.44-1.49-2.55-2.99-2.55s-2.76,1.1-3,2.55h-3.75v-5.59h6.1c.67,0,1-.82.52-1.28l-2.6-2.5c-.14-.13-.32-.21-.52-.21h-6.95c-.16,0-.32.05-.45.15l-3.33,2.5c-.57.43-.27,1.34.45,1.34h5.79v5.59h-8.27c-.24-1.44-1.49-2.55-2.99-2.55s-2.76,1.1-3,2.55H1v-1.9h.72c.88,0,1.6-.72,1.6-1.6v-1.82c.17-.04.35-.07.52-.08l4.63-.25c.1,0,.19-.04.27-.1L15.77,1h8.47l5.77,5.15c.09.08.21.13.33.13h3.46v1.67h-.72c-.88,0-1.6.72-1.6,1.6v2.09c0,.06.01.13.04.18-.15.03-.31.05-.47.05h-1.55Zm2.98-.42v-1.9c0-.33.27-.6.6-.6h.72v.15c0,.99-.53,1.86-1.32,2.35Z"/>
</svg>