<?xml version="1.0" encoding="UTF-8"?>
<svg id="Capa_1" data-name="Capa 1" xmlns="http://www.w3.org/2000/svg" viewBox="0 0 34.9 23.38">
  <defs>
    <style>
      .cls-1 {
        fill: #212322;
      }
    </style>
  </defs>
  <path class="cls-1" d="m34.76,11.48c-.31-.47-7.83-11.48-17.31-11.48S.46,11.01.14,11.48l-.14.21.14.21c.31.47,7.83,11.48,17.31,11.48s16.99-11.01,17.31-11.48l.14-.21-.14-.21Zm-3.92.07c0,4.07-3.31,7.38-7.38,7.38s-7.38-3.31-7.38-7.38,3.31-7.38,7.38-7.38,7.38,3.31,7.38,7.38Zm-29.92.14C2.01,10.16,9.07.75,17.45.75c3.21,0,6.22,1.38,8.78,3.17-.87-.32-1.8-.5-2.78-.5-4.48,0-8.13,3.65-8.13,8.13s3.65,8.13,8.13,8.13c1.34,0,2.59-.33,3.71-.9-2.75,2.1-6.1,3.85-9.71,3.85C9.07,22.63,2.01,13.22.91,11.69Zm29.24,4.46c.9-1.31,1.43-2.89,1.43-4.6,0-1.4-.36-2.72-.99-3.88,1.78,1.83,2.99,3.45,3.39,4.01-.43.61-1.82,2.46-3.83,4.46Z"/>
</svg>