<?xml version="1.0" encoding="UTF-8"?>
<svg id="Capa_1" data-name="Capa 1" xmlns="http://www.w3.org/2000/svg" viewBox="0 0 60.02 74.46">
  <defs>
    <style>
      .cls-1 {
        fill: #212322;
      }
    </style>
  </defs>
  <g>
    <rect class="cls-1" x="33.87" y="47.74" width="3.1" height="14.28"/>
    <path class="cls-1" d="m18.4,48.09v-3.09H0v3.1h7.65v13.93h3.1v-13.93h7.65v3.09h9.21l.5.52v1.58h-7.93c-2.37,0-4.3,1.93-4.3,4.3s1.93,4.3,4.3,4.3h5.79s0,0,0,0h.02v-.02l2.11-1.7v1.85h3.1v-11.54l-2.27-2.38h-10.53Zm7.52,10.68h0s-5.74.01-5.74.01c-.66,0-1.2-.54-1.2-1.2s.54-1.2,1.2-1.2h7.93v1.34l-2.18,1.05Z"/>
    <path class="cls-1" d="m41.45,48.09v3.1h9.21l.5.52v1.58h-7.93c-2.37,0-4.3,1.93-4.3,4.3s1.93,4.3,4.3,4.3h5.79s0,0,0,0h.02v-.02l2.11-1.7v1.85h3.1v-11.54l-2.27-2.38h-10.53Zm7.52,10.68h0s-5.74.01-5.74.01c-.66,0-1.2-.54-1.2-1.2s.54-1.2,1.2-1.2h7.93v1.34l-2.18,1.05Z"/>
    <rect class="cls-1" x="56.96" y="58.96" width="3.06" height="3.06"/>
  </g>
  <g>
    <path class="cls-1" d="m31.85,5.12l1.52.97c.22.14.5.07.64-.14.14-.22.07-.5-.14-.64l-1.52-.97c-.22-.14-.5-.07-.64.14-.14.22-.07.5.14.64Z"/>
    <path class="cls-1" d="m30.01,0l-11.58,6.68v18.73l1.9,3.77,9.68,5.59,11.58-6.68V6.68L30.01,0Zm.22,14.2l5.03,2.94-5.03,2.98v-5.92Zm5.24,2.56l-5.24-3.06v-3.91c0-1.15-.37-2.25-1.03-3.15l6.27,3.66v6.45ZM30.01.51l10.92,6.31-5.25,3.11-7.76-4.54c-.12-.09-.25-.17-.39-.25l-2.78-1.6,5.24-3.03Zm-11.14,24.81V7.19l3.11,1.84c1.32.78,2.13,2.21,2.13,3.74v18.09l-3.45-1.99-1.79-3.56Zm3.33-16.66l-3.11-1.84,1.46-.84,3.22,1.89c1.38.81,2.24,2.31,2.24,3.92v20.18l-1.45-.84V12.78c0-1.68-.9-3.26-2.35-4.12Zm1.78-1.17l-3-1.76,1.46-.84,3.11,1.81c1.45.84,2.35,2.41,2.35,4.09v22.27l-1.45-.84V11.78c0-1.76-.94-3.41-2.46-4.3Zm1.78-1.17l-2.89-1.68,1.46-.84,3.36,1.97c1.3.92,2.1,2.42,2.1,4.03v24.37l-1.45-.84V10.78c0-1.84-.99-3.55-2.57-4.47Zm15.38,21.54l-5.24,3.03v-13.61l5.24-3.1v13.69Z"/>
    <path class="cls-1" d="m21.49,17.39c-.26,0-.46.21-.46.46v1.81c0,.26.21.46.46.46s.46-.21.46-.46v-1.81c0-.26-.21-.46-.46-.46Z"/>
  </g>
  <g>
    <path class="cls-1" d="m16.32,70.14h-.97s-.05,0-.05.06v4.14c0,.06.02.06.05.06h.35s.05,0,.05-.06v-1.37s.02-.05.05-.05h.53c.3,0,.54-.1.74-.3.19-.2.28-.44.28-.74v-.7c0-.29-.09-.54-.28-.74-.2-.2-.44-.3-.74-.3Zm.57,1.74c0,.17-.05.32-.15.43-.1.12-.24.17-.41.17h-.53s-.05-.02-.05-.05v-1.82s.02-.05.05-.05h.52c.17,0,.31.06.41.18.1.12.15.26.15.44v.7Z"/>
    <path class="cls-1" d="m20.49,72.64s0-.04.02-.05c.14-.09.25-.21.32-.36.08-.15.12-.32.12-.52v-.55c0-.29-.09-.54-.28-.73-.19-.2-.44-.29-.74-.29h-.97s-.05,0-.05.06v4.14s.02.06.05.06h.35s.05,0,.05-.06v-1.53s.02-.05.05-.05h.5c.06,0,.12,0,.16-.01,0,0,0,0,0,0,.02,0,.04.01.05.04l.42,1.56s.03.05.05.05h.39s.01,0,.02-.01c0,0,0-.02,0-.03l-.5-1.71Zm-.56-.31h-.53s-.05-.02-.05-.05v-1.67s.02-.05.05-.05h.52c.17,0,.31.06.41.17.1.11.15.26.15.43v.56c0,.18-.05.32-.14.43-.11.12-.25.18-.42.18Z"/>
    <path class="cls-1" d="m23.53,70.07s0,0,0,0c-.29,0-.53.09-.73.27-.2.18-.3.42-.3.71v2.43c0,.29.1.52.3.7.19.18.44.27.73.27s.54-.09.73-.27c.2-.19.3-.42.3-.71v-2.43c0-.28-.1-.52-.3-.71-.19-.18-.44-.27-.72-.27Zm.57,3.39c0,.16-.05.29-.16.4-.12.11-.26.17-.42.17s-.3-.06-.41-.17c-.11-.11-.16-.24-.16-.4v-2.39c0-.16.06-.29.17-.41.11-.11.25-.17.41-.17s.3.06.41.17c.11.12.17.25.17.41v2.39Z"/>
    <path class="cls-1" d="m27.95,70.14h-.39s-.05,0-.06.06l-.55,1.97s-.08.04-.09,0l-.04-.15-.51-1.82s-.03-.06-.07-.06h-.39s-.02,0-.03.01c0,0-.01.02,0,.05l.85,2.46s0,.01,0,.02v1.66c0,.06.02.06.04.06h.38s.04,0,.04-.06v-1.65s0-.01,0-.02l.86-2.47s0-.04,0-.05c0,0,0-.01-.03-.01Z"/>
    <path class="cls-1" d="m31.08,72.7h-1.17s-.05-.02-.05-.05v-.94s.02-.05.05-.05h.92s.05,0,.05-.05v-.33s0-.03-.01-.04c0,0-.02-.01-.03-.01h-.92s-.05-.02-.05-.05v-.58s.02-.05.05-.05h1.17s.04,0,.04-.05v-.33c0-.05-.02-.05-.04-.05h-1.61s-.05,0-.05.06v2.87c0,.06.02.06.05.06h1.61s.04,0,.04-.05v-.33s-.01-.05-.04-.05Z"/>
    <path class="cls-1" d="m34.54,73.07h-.36s-.04,0-.04.07v.31c0,.16-.05.3-.16.41-.11.11-.25.17-.41.17s-.3-.06-.41-.17c-.11-.11-.17-.25-.17-.41v-2.38c0-.16.05-.29.16-.41.11-.11.24-.17.41-.17s.3.06.4.17c.1.11.15.25.15.4v.26s0,.06.01.06c0,0,.02,0,.03,0h.36s.03,0,.03,0c0,0,.01-.02.01-.07v-.26c0-.28-.09-.51-.25-.69-.18-.2-.43-.3-.74-.3-.29,0-.54.1-.74.28-.2.19-.29.42-.29.7v2.43c0,.29.1.52.3.71.19.18.44.27.73.27s.53-.09.72-.27c.2-.18.29-.42.29-.71v-.35s0-.06,0-.06c0,0-.01,0-.04,0Z"/>
    <path class="cls-1" d="m37.79,70.14h-1.88s-.02,0-.03.01c0,0-.01.02-.01.04v.32s.02.05.04.05h.66s.05.02.05.05v3.73s0,.03.01.04c0,0,.02.01.03.01h.38s.02,0,.02-.01c0,0,.01-.02.01-.04v-3.73s.02-.05.05-.05h.67s.03,0,.03-.05v-.33s0-.04,0-.04c0,0-.02,0-.03,0Z"/>
    <path class="cls-1" d="m40.08,70.07h0c-.29,0-.53.09-.73.27-.2.18-.3.42-.3.71v2.43c0,.29.1.52.3.7.19.18.44.27.73.27s.54-.09.73-.27c.2-.19.3-.42.3-.71v-2.43c0-.28-.1-.52-.3-.71-.19-.18-.44-.27-.72-.27Zm.57,3.39c0,.16-.05.29-.16.4-.12.11-.26.17-.42.17s-.3-.06-.41-.17c-.11-.11-.16-.24-.16-.4v-2.39c0-.16.06-.29.17-.41.11-.11.25-.17.41-.17s.3.06.41.17c.11.12.17.25.17.41v2.39Z"/>
    <path class="cls-1" d="m44.64,73c-.09-.24-.27-.47-.54-.69-.14-.11-.28-.22-.43-.34-.19-.16-.32-.27-.38-.34-.13-.15-.19-.32-.19-.51,0-.21.07-.38.2-.49.1-.09.23-.13.36-.13.17,0,.3.06.41.18.1.11.14.25.14.41v.19s0,.05,0,.05c0,0,0,0,.03,0h.34s.05,0,.05,0c0,0,0,0,0-.05v-.19c0-.29-.09-.54-.28-.73-.19-.19-.43-.29-.72-.29-.12,0-.26.03-.4.09-.17.07-.31.18-.41.32-.12.17-.19.38-.19.64,0,.28.08.53.25.73.01.02.03.04.05.06l.05.06s.04.04.06.06c.02.02.04.04.06.06.01.01.04.03.07.06.03.03.05.04.07.06l.08.06s.06.05.07.06c.01,0,.04.03.09.07l.08.06c.29.24.46.4.54.5.11.14.16.32.16.52,0,.16-.06.3-.18.41-.12.11-.26.16-.41.16-.14,0-.27-.05-.38-.14-.14-.11-.2-.28-.2-.48v-.15s0-.05-.01-.05c0,0-.02,0-.03,0h-.35s-.03,0-.04,0c0,0-.01.02-.01.07v.16c0,.3.09.54.28.73.19.19.43.29.73.29s.56-.1.77-.3c.19-.19.29-.42.29-.68,0-.19-.02-.35-.07-.49Z"/>
    <rect class="cls-1" x="29.42" y="74.03" width="1.71" height=".43"/>
  </g>
</svg>