<?xml version="1.0" encoding="UTF-8"?>
<svg id="Capa_1" data-name="Capa 1" xmlns="http://www.w3.org/2000/svg" viewBox="0 0 47.14 41.06">
  <defs>
    <style>
      .cls-1 {
        fill: #212322;
      }
    </style>
  </defs>
  <path class="cls-1" d="m14.52,23.21l2.87,4.39c.36.56.99.89,1.65.89h6.79c.54,0,1.05-.22,1.43-.61l2.17-2.27c.22-.23.39-.51.47-.82l1.03-3.59c.36-1.26-.59-2.52-1.9-2.52h-2.33c-.89,0-1.54-.85-1.3-1.71l1.82-6.58c.16-.59.69-.99,1.3-.99h4.45c.89,0,1.67-.59,1.9-1.45l1.5-5.45c.35-1.26-.6-2.5-1.9-2.5h-13.01c-.61,0-1.14.41-1.3.99l-5.82,21.12c-.1.37-.04.77.17,1.1Z"/>
  <path class="cls-1" d="m46.63,5.9l-2.56-2.05-3.05-2.44c-.76-.61-1.89-.24-2.15.7l-6.5,23.59-.46,1.68c-.09.32-.25.61-.48.84l-2.82,2.94c-.37.39-.89.61-1.43.61h-13.03c-.67,0-1.29-.34-1.65-.89l-1.48-2.27c-.31-.47-.4-1.06-.25-1.6l.49-1.8c.35-1.26-.6-2.5-1.9-2.5H3.81c-.89,0-1.67.59-1.9,1.45L.07,30.83c-.16.59-.04,1.21.32,1.7l5.76,7.73c.37.5.96.8,1.58.8h22.24c.51,0,1.01-.2,1.38-.56l4.15-4.03,4.86-4.72h0l6.74-24.45c.14-.52-.04-1.08-.46-1.41Z"/>
  <path class="cls-1" d="m8.82,9.4h5.55c.89,0,1.67-.59,1.9-1.45l1.47-5.32c.35-1.26-.6-2.5-1.9-2.5h-5.55c-.89,0-1.67.59-1.9,1.45l-.91,3.29-.56,2.03c-.35,1.26.6,2.5,1.9,2.5Z"/>
</svg>