<?xml version="1.0" encoding="UTF-8"?>
<svg id="Capa_1" data-name="Capa 1" xmlns="http://www.w3.org/2000/svg" viewBox="0 0 116.96 16.63">
  <defs>
    <style>
      .cls-1 {
        fill: #212322;
      }
    </style>
  </defs>
  <path class="cls-1" d="m68.14,1.37c-.26-.04-1.67-.06-1.69-.06-.52,0-1.03.03-1.54.14-1.63.37-3.01,1.15-4.07,2.45-.77.94-1.22,2.02-1.42,3.21-.03.15.09.13.16.14.68.13,1.36.26,2.04.38.32.06.32.06.38-.27.24-1.3.88-2.35,2.01-3.08,1.2-.78,2.53-.96,3.92-.65,1.38.31,2.43,1.08,3.1,2.33.58,1.1.69,2.27.44,3.47-.02.11-.03.17.11.19.76.12,1.52.24,2.28.36.1.02.13,0,.15-.1.23-1.05.23-2.09,0-3.14-.63-2.96-2.99-4.93-5.86-5.38Z"/>
  <path class="cls-1" d="m90.32,11.32c.12,0,.15-.04.15-.15,0-.33,0-.65,0-.98,0-1.27,0-2.55,0-3.75-.02-.25-.03-3.45-.03-4.87,0-.09-.01-.13-.12-.13-.63,0-1.26,0-1.89,0-.07,0-.11.02-.15.08-.33.56-.66,1.12-.99,1.68-1.42,2.39-2.83,4.79-4.25,7.18-.06.1-.08.12-.15,0-.26-.44-.52-.87-.78-1.31-1.52-2.52-3.04-5.03-4.55-7.55-.05-.08-.1-.1-.19-.1-.6,0-1.21,0-1.81,0-.13,0-.17.03-.17.16,0,2.47,0,4.95,0,7.42,0,.35,0,.7,0,1.05,0,.11.04.15.15.16.72.09,1.44.18,2.16.28.14.02.15-.02.15-.14,0-1.3,0-2.6,0-3.9,0-.06-.03-.15.02-.17.05-.01.08.08.11.14.87,1.42,1.73,2.83,2.6,4.25.05.08.1.13.2.14,1.32.12,2.63.21,3.95.3.18.01.26-.04.35-.19.91-1.53,1.83-3.04,2.75-4.56.04-.06.07-.12.11-.18.01-.02.04-.04.05-.03.04,0,.02.04.02.06,0,.17,0,.33,0,.5-.01,1.48.02,2.97-.02,4.45,0,.1.03.12.12.12.73-.02,1.46.04,2.19.03Z"/>
  <path class="cls-1" d="m45.79,6.59c-.81-.05-1.63-.11-2.44-.16-.08,0-.2-.07-.24,0-.05.07.06.14.1.22.32.66.48,1.36.49,2.09.02,1-.17,1.94-.73,2.78-.88,1.32-2.19,1.92-3.73,2.01-1.26.07-2.53.02-3.8.02-.08,0-.11-.02-.11-.11,0-.26,0-.53,0-.79,0-2.11,0-4.22,0-6.34,0-.07,0-.12-.1-.12-.78.02-1.55-.03-2.33.03-.13,0-.16.06-.16.18,0,1.53,0,3.06,0,4.59h0c0,1.52,0,3.04,0,4.56,0,.13.03.17.17.17,1.95,0,3.9,0,5.85,0,.72,0,1.42-.07,2.12-.22,1.3-.29,2.46-.83,3.43-1.75,1.04-.99,1.65-2.21,1.88-3.62.18-1.13.13-2.25-.19-3.35-.03-.11-.08-.16-.2-.17Z"/>
  <path class="cls-1" d="m25.74,11.14v-3.66c0-.26,0-.53,0-.79,0-.09-.02-.13-.13-.12-.25.03-.5.05-.75.07-.51.05-1.02.1-1.54.14-.12,0-.16.05-.15.17.01.2,0,.39,0,.59,0,.1-.02.13-.13.13-1.99-.03-3.99-.01-5.98-.01-.14,0-.29,0-.43.03-1,.18-1.99.36-2.99.57-.14.03-.16.08-.16.2,0,2.37,0,4.73,0,7.1,0,.1.04.13.13.13.78,0,1.57,0,2.35,0,.08,0,.11-.03.11-.11,0-.17,0-.35,0-.52,0-1.7,0-3.4,0-5.1,0-.12.05-.14.15-.14,2.26,0,4.53,0,6.79,0,.13,0,.16.03.16.16,0,1.84,0,3.69,0,5.53,0,.15.05.18.19.18.74,0,1.49,0,2.23,0,.13,0,.16-.04.16-.16,0-1.47,0-2.94,0-4.41h0Z"/>
  <path class="cls-1" d="m58.84,15.07c-.88-1.25-1.76-2.5-2.65-3.75-.05-.08-.07-.11.04-.14.27-.1.52-.24.77-.39.89-.57,1.51-1.34,1.82-2.35.02-.07.04-.12-.07-.14-.76-.13-1.53-.25-2.29-.39-.12-.02-.17,0-.21.11-.21.51-.57.9-1.06,1.16-.61.33-1.28.45-1.97.44-1.01-.01-2.01,0-3.02-.01-.11,0-.13-.03-.13-.14,0-.77,0-1.54,0-2.31,0-.11-.03-.15-.14-.16-.7-.07-1.39-.14-2.08-.21-.33-.03-.33-.04-.33.28h0v4.56c-.01,1.05.02,2.5-.01,3.96,0,.12.05.13.15.13.76,0,1.52,0,2.27,0,.13,0,.16-.04.16-.16,0-1.22,0-2.45,0-3.67,0-.12.03-.15.15-.15,1.12,0,2.24,0,3.36,0,.1,0,.16.03.22.12.87,1.25,1.75,2.5,2.63,3.75.05.07.1.12.21.12.84,0,1.69,0,2.53,0,.03,0,.06.01.07-.01.02-.03,0-.06-.03-.08-.13-.18-.25-.36-.38-.54Z"/>
  <path class="cls-1" d="m92.62,11.32c1.31,0,2.62-.06,3.93-.11.67-.03,1.33-.06,2-.11.94-.07,1.88-.15,2.82-.23.7-.06,1.41-.15,2.11-.22.1-.01.15-.03.1-.16-.94-2.06-1.88-4.12-2.82-6.19-.41-.89-.81-1.79-1.21-2.68-.05-.12-.12-.18-.26-.17-.36.01-.72,0-1.08,0-.38,0-.76,0-1.14,0-.08,0-.13.01-.17.09-.41.91-.82,1.82-1.23,2.73-1.04,2.3-2.09,4.6-3.13,6.9-.05.11-.04.14.09.14Zm3.05-1.49c.8-1.86,1.6-3.72,2.4-5.58.03-.07.05-.14.11-.19.03.06.07.13.09.19.8,1.85,1.6,3.7,2.4,5.55q.07.15-.11.15c-.8,0-1.6,0-2.39,0s-1.61,0-2.42,0c-.1,0-.15,0-.09-.12Z"/>
  <path class="cls-1" d="m108.63,8.06c.06.09.05.14-.01.22-.42.57-.84,1.13-1.25,1.7-.02.03-.06.06-.04.09.02.03.07.01.1,0,1.15-.2,2.3-.41,3.44-.66.48-.11.96-.22,1.44-.32.16-.03.16-.03.07-.16-.19-.26-.38-.52-.57-.78-.05-.06-.05-.11,0-.18.68-.93,1.36-1.86,2.03-2.79.88-1.21,1.77-2.42,2.65-3.63.02-.02.04-.06.04-.08,0-.04-.05-.02-.08-.02-.86,0-1.72,0-2.58,0-.07,0-.12.03-.16.09-1.11,1.56-2.23,3.11-3.33,4.67-.07.09-.1.07-.16,0-.08-.11-.16-.22-.23-.33-1.04-1.44-2.09-2.89-3.13-4.34-.05-.07-.11-.09-.2-.09-.44,0-.88,0-1.31,0s-.88,0-1.31,0c-.04,0-.09-.02-.11.02-.02.04.02.07.04.1,1.56,2.16,3.12,4.33,4.69,6.49Z"/>
  <path class="cls-1" d="m71.48,10.81c-.12-.02-.18,0-.22.12-.36.84-.94,1.51-1.72,2-1.06.66-2.22.87-3.45.68-1.81-.28-3.07-1.26-3.75-2.97-.2-.51-.28-1.04-.31-1.58,0-.11-.06-.16-.17-.19-.75-.14-1.5-.29-2.25-.44-.12-.02-.16,0-.16.12,0,.61.02,1.21.15,1.8.36,1.66,1.2,3.02,2.57,4.05,1.39,1.04,2.98,1.48,4.81,1.5.64-.02,1.38-.09,2.09-.29,2.31-.66,3.95-2.05,4.81-4.32.04-.11.01-.13-.09-.14-.77-.12-1.53-.23-2.3-.36Z"/>
  <path class="cls-1" d="m49.82,5.82c.13.01.16-.02.16-.14,0-.64,0-1.28,0-1.92,0-.11.03-.13.14-.14.98-.03,1.97-.01,2.95-.01.57,0,1.14.07,1.68.28.79.31,1.33.84,1.54,1.68.08.33.07.67.06,1,0,.1.03.14.13.16.76.12,1.51.24,2.27.38.13.02.16-.01.17-.12.06-.46.05-.91,0-1.37-.21-1.6-1.05-2.77-2.51-3.49-.97-.48-2.01-.65-3.08-.67-.93-.02-1.86,0-2.79,0-.99,0-1.98,0-2.98,0-.1,0-.13.02-.13.12,0,1.29,0,2.58,0,3.87,0,.1.03.14.13.15.76.07,1.52.15,2.27.23Z"/>
  <path class="cls-1" d="m109.86,10.84c-.95.18-1.9.36-2.86.5-.08.01-.15.04-.2.11-.58.79-1.16,1.58-1.73,2.37-.07.09-.1.07-.14-.01-.29-.64-.58-1.28-.87-1.92-.05-.11-.1-.12-.2-.11-.69.08-1.39.17-2.08.24-1.05.1-2.09.18-3.14.26-1.25.09-2.5.12-3.75.18-.81.04-1.62.04-2.43.03-.11,0-.19.02-.21.15-.02.09-.07.17-.11.26-.4.89-.81,1.79-1.22,2.68-.03.07-.08.14.07.14.79,0,1.58,0,2.37,0,.12,0,.17-.04.22-.15.41-.97.82-1.93,1.24-2.89.03-.06.06-.11.14-.11,1.05,0,2.09,0,3.14,0,1.19,0,2.37,0,3.56,0,.09,0,.1.05.13.11.42.97.85,1.94,1.26,2.91.05.11.1.15.22.15.53,0,1.06,0,1.6,0h0c.47,0,.95-.02,1.42,0,.26.01.41-.09.55-.29,1.04-1.48,2.09-2.95,3.14-4.43.04-.06.14-.13.11-.18-.04-.05-.14.01-.21.03Z"/>
  <path class="cls-1" d="m35.07,5.02c.12,0,.15-.04.15-.16-.02-.38-.02-.75,0-1.13,0-.1.04-.13.14-.13.96,0,1.92,0,2.88,0,.36,0,.72,0,1.08.04,1.2.13,2.27.56,3.11,1.45.07.07.15.11.25.11.89.06,1.78.12,2.67.18.08,0,.2.06.24,0,.05-.07-.05-.15-.09-.22-.62-1.24-1.56-2.17-2.8-2.82-1.18-.61-2.45-.88-3.77-.91-1-.02-1.99,0-2.99,0s-2.07,0-3.11,0c-.15,0-.18.04-.18.19,0,1.06,0,2.12,0,3.19q0,.22.21.21c.74-.03,1.49-.02,2.23,0Z"/>
  <path class="cls-1" d="m30.54,6.41c0-.12-.04-.14-.15-.14-.77.04-1.53.09-2.3.12-.12,0-.16.04-.16.16,0,3,0,6.01,0,9.01,0,.11.03.14.14.14.76,0,1.52,0,2.29,0,.14,0,.18-.03.18-.18,0-1.51,0-3.02,0-4.53s0-3.06,0-4.59Z"/>
  <path class="cls-1" d="m116.92,15.6c-.24-.34-.48-.69-.74-1.03-1.07-1.42-2.11-2.87-3.16-4.31-.05-.07-.11-.09-.19-.07-.75.19-1.51.35-2.26.51-.1.02-.1.06-.05.12.11.15.23.3.34.45,1.03,1.43,2.05,2.86,3.08,4.29.07.1.15.15.28.14.43,0,.87,0,1.3,0h0c.45,0,.9,0,1.35,0,.03,0,.08.03.1-.01.02-.04-.02-.07-.04-.09Z"/>
  <path class="cls-1" d="m15.8,6.65c.13-.02.17-.07.17-.2,0-.81,0-1.61,0-2.42h0c0-.81,0-1.61,0-2.42,0-.12-.03-.16-.16-.16-.71,0-1.42,0-2.14,0-.26,0-.25,0-.25.25-.01,1.76.03,3.53-.02,5.29,0,.08.02.11.11.09.76-.15,1.53-.3,2.29-.44Z"/>
  <path class="cls-1" d="m23.2,5.61c.77-.07,1.54-.14,2.32-.21.08,0,.12-.04.12-.12,0-1.23,0-2.46,0-3.68,0-.11-.03-.15-.15-.14-.77,0-1.53,0-2.3,0-.1,0-.13.03-.13.13,0,.65,0,1.3,0,1.95s0,1.31,0,1.96c0,.11.03.14.14.13Z"/>
  <path class="cls-1" d="m77.84,11.7c-.28-.03-.55-.06-.83-.1-.46-.06-.92-.12-1.38-.18-.08-.01-.12,0-.12.1,0,.68,0,1.35,0,2.03h0c0,.67,0,1.34,0,2.02,0,.11.03.14.14.14.73,0,1.46,0,2.19,0,.1,0,.13-.02.13-.13,0-1.25,0-2.49,0-3.74,0-.1-.03-.13-.13-.14Z"/>
  <path class="cls-1" d="m30.32,5.11c.09,0,.11-.03.11-.12,0-1.14,0-2.29,0-3.43,0-.09-.02-.12-.12-.12-.78,0-1.57,0-2.35,0-.11,0-.13.04-.13.14,0,.59,0,1.17,0,1.76s0,1.17,0,1.76c0,.1.02.12.13.12.79-.04,1.58-.08,2.36-.12Z"/>
  <path class="cls-1" d="m90.58,12.64c0-.08,0-.16-.12-.16-.73.02-1.47,0-2.2-.03-.11,0-.14.03-.14.14,0,.5,0,.99,0,1.49h.02c0,.5,0,1,0,1.5,0,.09.03.12.12.12.73,0,1.47,0,2.2,0,.09,0,.12-.03.12-.12,0-.25,0-.5,0-.75,0-.73,0-1.47,0-2.2Z"/>
  <path class="cls-1" d="m83.91,12.26c-.87-.07-1.73-.13-2.6-.2-.04,0-.09-.03-.11,0-.02.04.03.07.05.1.39.63.77,1.26,1.16,1.89.04.06.08.09.15.09.16,0,.32,0,.49,0s.32,0,.49,0c.05,0,.09,0,.12-.06.34-.57.68-1.13,1.02-1.69.04-.07.03-.09-.05-.1-.23-.01-.47-.02-.7-.04Z"/>
  <path class="cls-1" d="m10.31,10.42c0-.06,0-.12,0-.17h0C10.31,6.92,5.15,0,5.15,0,5.15,0,0,6.92,0,10.25h0c0,.06,0,.12,0,.17,0,2.85,2.31,5.15,5.15,5.15s5.15-2.31,5.15-5.15Zm-6.16-5.45c-.05.12-.13.23-.23.32l-.64.52c-.1.08-.25-.01-.22-.14l.17-.72c.02-.14.08-.28.18-.39l1.55-1.79s.06,0,.05.03l-.85,2.17Z"/>
  <path class="cls-1" d="m9.05,5.31c1,1.88,1.8,3.81,1.8,5.19h0c0,.06,0,.13,0,.19,0,3.15-2.55,5.7-5.7,5.7-.19,0-.37-.01-.55-.03.51.17,1.05.27,1.61.27,2.85,0,5.15-2.31,5.15-5.15,0-.06,0-.12,0-.17h0c0-1.79-1.1-4.05-2.32-5.99Z"/>
</svg>