<?xml version="1.0" encoding="UTF-8"?>
<svg id="Capa_1" data-name="Capa 1" xmlns="http://www.w3.org/2000/svg" viewBox="0 0 220.97 160.29">
  <defs>
    <style>
      .cls-1 {
        fill: #f8bd00;
      }
    </style>
  </defs>
  <path class="cls-1" d="m0,0v160.29h220.97V0H0Zm219.99,10.52l-9.54-9.54h9.54v9.54ZM17.18,119.18L.97,135.38v-32.41l16.2,16.2Zm19.46,18.28l-18.27-18.27,18.28-18.28,18.27,18.27-18.28,18.28Zm-.39-37.36l-18.03,18.03v-40.7l18.03-18.03v40.7Zm-18.87-22.67v40.71L.97,101.74v-40.71l16.4,16.4Zm.82,42.78l18.02,18.02v21.08h-18.02v-39.11Zm37.75,0l18.03,18.03v21.08h-18.03v-39.11ZM187.34,16.8c.08.08.19.12.3.12s.22-.04.3-.12l15.83-15.83h2.32v38.38l-18.45,18.45-18.45-18.45V.97h2.32l15.83,15.83Zm-75.2,120.66l-18.28-18.28,9.14-9.14,9.14-9.14,9.14,9.14,9.14,9.14-18.28,18.28Zm.42-78.04l18.03,18.03v40.71l-18.03-18.03v-40.71Zm18.87,18.03l18.03-18.03v40.71l-18.03,18.03v-40.71Zm55.78,22.68l-18.03,18.03v-40.71l18.03-18.03v40.71Zm-18.45-60l18.28,18.28-18.27,18.28-18.28-18.28,9.14-9.14,9.14-9.14Zm-37.75,36.55l-18.28-18.28,9.14-9.14,9.14-9.14,18.28,18.28-18.28,18.28Zm-19.3,23.45l-18.03,18.03v-40.71l18.03-18.03v40.71Zm38.17,37.32l-18.28-18.28,18.28-18.28,9.14,9.14,9.14,9.14-18.28,18.28Zm18.45-117.67v19.57l-18.03,18.03V16.67l15.7-15.7h2.33v18.81Zm-18.45-3.88l-14.93-14.93h29.86l-14.93,14.93Zm-.42.77v40.71l-18.03-18.03V.97h2.33l15.7,15.7Zm-56.2,23.45l9.14,9.14,9.14,9.14-18.28,18.28-18.28-18.28,18.28-18.28Zm-18.45,98.1l18.03-18.03v39.11h-18.03v-21.08Zm18.87-18.03l18.03,18.03v21.08h-18.03v-39.11Zm18.87,18.03l18.03-18.03v39.11h-18.03v-21.08Zm37.75,0l18.03-18.03v39.11h-18.03v-21.08Zm18.87-18.03l18.03,18.03v21.08h-18.03v-39.11Zm18.87,18.03l18.03-18.03v39.11h-18.03v-21.08Zm28.19-28.19l3.75-3.75v25.78l-12.89-12.89,9.14-9.14Zm-9.74,8.54l-18.45-18.45v-40.71l18.15,18.15c.08.08.19.12.3.12s.22-.04.3-.12l13.19-13.19v40.71l-13.48,13.48Zm0-41.9l-18.27-18.28,18.28-18.28,13.48,13.48v9.58l-13.48,13.48ZM92.85.97v38.38l-18.75,18.75h0s-.07.09-.09.14c-.02.05-.03.1-.03.16v41.73l-18.46,18.46-18.42-18.42v-41.78c0-.06-.01-.11-.03-.16-.02-.05-.05-.1-.09-.14h0s-18.87-18.87-18.87-18.87c-.16-.16-.43-.16-.6,0L.97,55.74V.97h91.87ZM.97,136.58l16.37-16.37v39.11H.97v-22.74Zm205.96,22.74v-39.11l13.06,13.06v26.05h-13.06Z"/>
</svg>