<?xml version="1.0" encoding="UTF-8"?>
<svg id="Capa_1" data-name="Capa 1" xmlns="http://www.w3.org/2000/svg" viewBox="0 0 14.8 14.8">
  <defs>
    <style>
      .cls-1 {
        fill: #f8bd00;
      }
    </style>
  </defs>
  <path class="cls-1" d="m7.4,0C3.32,0,0,3.32,0,7.4s3.32,7.4,7.4,7.4,7.4-3.32,7.4-7.4S11.48,0,7.4,0Zm0,13.8c-3.53,0-6.4-2.87-6.4-6.4S3.87,1,7.4,1s6.4,2.87,6.4,6.4-2.87,6.4-6.4,6.4Z"/>
  <path class="cls-1" d="m7.4,2.83c-2.52,0-4.57,2.05-4.57,4.57s2.05,4.57,4.57,4.57,4.57-2.05,4.57-4.57-2.05-4.57-4.57-4.57Zm0,8.14c-1.97,0-3.57-1.6-3.57-3.57s1.6-3.57,3.57-3.57,3.57,1.6,3.57,3.57-1.6,3.57-3.57,3.57Z"/>
  <path class="cls-1" d="m7.4,5.55c-1.02,0-1.85.83-1.85,1.85s.83,1.85,1.85,1.85,1.85-.83,1.85-1.85-.83-1.85-1.85-1.85Zm0,2.7c-.47,0-.85-.38-.85-.85s.38-.85.85-.85.85.38.85.85-.38.85-.85.85Z"/>
</svg>