<?xml version="1.0" encoding="UTF-8"?>
<svg id="Capa_1" data-name="Capa 1" xmlns="http://www.w3.org/2000/svg" viewBox="0 0 14.04 12.18">
  <defs>
    <style>
      .cls-1 {
        fill: #f8bd00;
      }
    </style>
  </defs>
  <path class="cls-1" d="m12.96,1.04c-1.38-1.38-3.8-1.39-5.18,0l-.76.77-.77-.77C4.87-.35,2.46-.34,1.07,1.04.38,1.73,0,2.65,0,3.63s.38,1.9,1.07,2.59l.73.72h0s5.23,5.24,5.23,5.24l5.93-5.96c.69-.69,1.07-1.61,1.07-2.59s-.38-1.9-1.07-2.59Zm-.71,4.47l-5.23,5.25-3.71-3.71h0s-1.54-1.54-1.54-1.54c-.5-.5-.78-1.17-.78-1.88s.28-1.38.78-1.88c1.01-1.01,2.76-1.01,3.77,0l1.48,1.48,1.47-1.48c1.01-1.01,2.76-1.01,3.77,0,.5.5.78,1.17.78,1.88s-.28,1.38-.78,1.88Z"/>
</svg>