<?xml version="1.0" encoding="UTF-8"?>
<svg id="Capa_1" data-name="Capa 1" xmlns="http://www.w3.org/2000/svg" viewBox="0 0 29.02 27.64">
  <defs>
    <style>
      .cls-1 {
        fill: #212322;
      }
    </style>
  </defs>
  <path class="cls-1" d="m14.89.28l3.15,9.7c.05.16.21.28.38.28h10.2c.39,0,.55.5.24.72l-8.25,5.99c-.14.1-.2.28-.15.45l3.15,9.7c.12.37-.3.67-.62.45l-8.25-5.99c-.14-.1-.33-.1-.47,0l-8.25,5.99c-.31.23-.74-.08-.62-.45l3.15-9.7c.05-.16,0-.35-.15-.45L.17,10.97c-.31-.23-.15-.72.24-.72h10.2c.17,0,.33-.11.38-.28L14.13.28c.12-.37.64-.37.76,0Z"/>
</svg>