<?xml version="1.0" encoding="UTF-8"?>
<svg id="Capa_1" data-name="Capa 1" xmlns="http://www.w3.org/2000/svg" viewBox="0 0 34.65 19.84">
  <defs>
    <style>
      .cls-1 {
        fill: #212322;
      }
    </style>
  </defs>
  <path class="cls-1" d="m0,10.47v6.91h2.63v2.46h3.25v-2.46h9.91v2.46h3.25v-2.46h2.63V.23H0v10.23Zm4.88,8.37h-1.25v-1.46h1.25v1.46Zm13.17,0h-1.25v-1.46h1.25v1.46Zm2.63-2.46H1v-5.91c0-1.26,1.03-2.29,2.29-2.29h15.1c1.26,0,2.29,1.03,2.29,2.29v5.91Zm-4.53-9.2H5.53v-1.94c0-.39.32-.72.72-.72h9.19c.39,0,.72.32.72.72v1.94ZM1,1.23h19.68v6.88c-.59-.58-1.4-.93-2.29-.93h-1.24v-1.94c0-.95-.77-1.72-1.72-1.72H6.25c-.95,0-1.72.77-1.72,1.72v1.94h-1.24c-.89,0-1.7.36-2.29.93V1.23Z"/>
  <path class="cls-1" d="m30.4,8.39c.72-.46,1.2-1.27,1.2-2.18,0-.26-.05-.51-.12-.75h1.42l-1.32-5.46h-5.16l-1.32,5.46h1.42c-.07.24-.12.49-.12.75,0,.92.48,1.72,1.2,2.18h-3.88v10.95h10.95v-10.95h-4.26Zm-3.32-3.93h-.71l.84-3.46h3.58l.84,3.46h-4.55Zm.15,1.75c0-.27.06-.52.17-.75h3.19c.11.23.17.48.17.75,0,.97-.79,1.77-1.77,1.77s-1.77-.79-1.77-1.77Z"/>
</svg>