<?xml version="1.0" encoding="utf-8"?>
<!-- Generator: Adobe Illustrator 27.6.1, SVG Export Plug-In . SVG Version: 6.00 Build 0)  -->
<svg version="1.1" id="Capa_1" xmlns="http://www.w3.org/2000/svg" xmlns:xlink="http://www.w3.org/1999/xlink" x="0px" y="0px"
	 viewBox="0 0 80.9296417 74.134613" style="enable-background:new 0 0 80.9296417 74.134613;" xml:space="preserve">
<style type="text/css">
	.st0{fill:#212322;}
</style>
<g>
	<path class="st0" d="M30.0873833,25.5010662c0.2716141,0,0.4917736-0.2201595,0.4917736-0.4917736v-9.7691221L47.0073204,1.354025
		l6.7292252,22.8026924c0.0768394,0.2605686,0.3509903,0.4093761,0.6107368,0.332468
		c0.2605705-0.0769081,0.4094467-0.3503742,0.3324699-0.6108742L47.7371597,0.3525721
		c-0.0469284-0.1593735-0.1712418-0.2842378-0.3305473-0.3319195c-0.1591682-0.0476131-0.3315086-0.0117318-0.4585686,0.0955692
		L29.7699394,14.636363c-0.1105938,0.093442-0.1743298,0.230793-0.1743298,0.3755531v9.9973764
		C29.5956097,25.2809067,29.8157692,25.5010662,30.0873833,25.5010662z"/>
	<path class="st0" d="M30.6879673,67.238678l-9.2217102,5.5100784L1.3703768,65.4687576L18.750185,47.3756447
		c0.1881886-0.1959381,0.1819439-0.5072784-0.0139275-0.6953964c-0.1958733-0.1879845-0.5072098-0.1816711-0.6953297,0.0139961
		L0.1371702,65.3327789c-0.115328,0.1200638-0.1621178,0.2902069-0.1243154,0.4522552
		c0.0378023,0.1621857,0.1549827,0.2941895,0.3114747,0.350853l21.0263939,7.6171341
		c0.0543365,0.0196228,0.1110058,0.0293655,0.167469,0.0293655c0.0878181,0,0.1750851-0.0234604,0.2522678-0.0695648
		l9.4220409-5.6297379c0.2331257-0.1394043,0.3092098-0.4412766,0.1698704-0.6744003
		C31.2229614,67.1752853,30.9210243,67.0992661,30.6879673,67.238678z"/>
	<path class="st0" d="M80.9222488,73.5579071L77.035675,51.4035492c-0.025383-0.1447601-0.1140213-0.2704468-0.2417679-0.3428955
		l-10.3885727-5.8892059c-0.2360077-0.1337128-0.536232-0.0509071-0.6702881,0.1853065
		c-0.1339188,0.2362137-0.0509109,0.536438,0.1852341,0.6703568l10.1867371,5.7747688l3.7162857,21.1834335L55.346199,66.9664459
		c-0.2637253-0.0646286-0.530056,0.0963211-0.5949593,0.3600464s0.0963249,0.5301895,0.3600464,0.5949554l25.2091408,6.1988983
		c0.0389709,0.0096054,0.0783539,0.014267,0.1174622,0.014267c0.1232147,0,0.2436905-0.0463791,0.3357544-0.1325455
		C80.8950806,73.8885956,80.9509277,73.7216034,80.9222488,73.5579071z"/>
	<path class="st0" d="M25.1181622,51.1927223l0.7343655,0.0092354c0.179493,0.0022545,0.3414726-0.1073036,0.4061947-0.2747383
		l0.9051647-2.3416061c0.1041965-0.269558,0.3634434-0.4472923,0.6524487-0.4472923h0.6577244v-1.7191315h-0.0672855
		c-0.3066807,0-0.5244904-0.2986794-0.4307652-0.5906868l0.4980507-1.5516281l-0.8376026-2.7571068
		c-0.0358543-0.1180382-0.2019424-0.1208496-0.2417774-0.0041084l-2.967947,8.6975784
		C24.2640667,50.6899185,24.6145267,51.1863823,25.1181622,51.1927223z"/>
	<path class="st0" d="M29.9826031,39.1989021c-0.0635033-0.2045326-0.2527294-0.343914-0.4668941-0.343914h-0.9702721
		c-0.335701,0-0.5766811,0.323307-0.4807777,0.6450119l1.9073524,6.3978653
		c0.0772514,0.2564011-0.1147099,0.5147133-0.3824997,0.5147133h-0.1368618l0.0396729,1.7654152h0.2792377
		c0.5650959,0,1.0641766,0.3684006,1.2306671,0.9084129l0.5022278,1.6290169
		c0.0891724,0.2892456,0.3564987,0.4865685,0.6591759,0.4865685h0.7256279c0.4075394,0,0.6981926-0.3952103,0.5767593-0.7842445
		L29.9826031,39.1989021z"/>
	<path class="st0" d="M35.4721565,38.4582596h-0.3609657c-0.6054192,0-1.0962181,0.4907951-1.0962181,1.0962257v11.1181374
		c0,0.292366,0.2370033,0.5293694,0.5293732,0.5293694h1.3379059c0.053299,0,0.0965042-0.0432053,0.0965042-0.0964966V38.964859
		C35.978756,38.6850739,35.7519417,38.4582596,35.4721565,38.4582596z"/>
	<path class="st0" d="M44.8365936,38.4582596h-0.3609657c-0.6054306,0-1.0962257,0.4907951-1.0962257,1.0962257v11.1181374
		c0,0.292366,0.237011,0.5293694,0.5293694,0.5293694h0.6435509c0.4367828,0,0.790863-0.3540802,0.790863-0.7908669V38.964859
		C45.3431854,38.6850739,45.1163712,38.4582596,44.8365936,38.4582596z"/>
	<path class="st0" d="M39.1550941,38.5173035l-2.1646957-0.0590439v1.9307213h1.6239395
		c1.148098,0,2.0788193,0.9307289,2.0788193,2.0788307v5.1710968c0,0.9769516-0.7919807,1.7689285-1.7689323,1.7689285h-1.9338264
		v1.7941551h2.239975c1.9092255,0,3.4625587-1.5370941,3.4826164-3.4462128l0.057621-5.4837456
		C42.7919235,40.2435532,41.18293,38.5726013,39.1550941,38.5173035z"/>
	<path class="st0" d="M49.9948273,45.2497635c0.6519623-0.3160629,1.6605492-1.123333,1.7140274-3.1019707
		c0.0793457-2.9357491-2.8387337-3.6895332-5.3160973-3.6895332l-0.0396729,1.9439468c0,0,1.9653625-0.0595093,2.6290894,0.4165649
		c0.6637192,0.4760704,1.0802841,1.44804,0.524868,2.3208351c-0.5554161,0.8727913-3.2531357,0.7339401-3.2531357,0.7339401
		v1.7852592l0.0212173-0.0012016c0.6174774-0.0349541,1.1900253,0.3227768,1.4293594,0.893055l1.7674828,4.2115784
		c0.205307,0.489212,0.7693329,0.7181435,1.2575188,0.5104027l0.2315407-0.0985298
		c0.4138336-0.1760941,0.6079597-0.6531792,0.4346581-1.0681877l-1.6982079-4.0667534
		C49.5718994,45.7384415,49.7015762,45.3919258,49.9948273,45.2497635z"/>
	<path class="st0" d="M56.8794899,51.3009224c2.4799614-0.0574417,3.7556534-1.60215,3.8892136-3.5104713
		c0.1335793-1.9083328-1.447464-2.7490311-1.6036835-2.8504219c-0.1562157-0.1014023-3.3020592-1.4683037-3.3020592-1.4683037
		s-1.6084671-0.4379082-1.6863365-1.423111c-0.0652618-0.8257179,1.043232-1.4599533,1.9358749-1.5591316
		c0.8926086-0.0991898,1.3686905,0.0515823,2.4001732,0.765686c1.0314713,0.7140999,1.9637833-0.5157433,1.7744141-0.8908081
		c-0.1893921-0.3750572-1.2586784-1.8182259-4.0443344-1.8182259c-2.785675,0-4.1768494,1.8759079-3.983429,3.841404
		c0.1934166,1.9654999,1.7668457,2.4579773,3.6675949,3.2885475c1.9007874,0.8305626,3.10149,1.410923,2.9626465,2.3035469
		c-0.1388588,0.8926353-1.3091888,1.5184669-2.4261742,1.5184669s-1.9377975-0.467144-2.2676926-0.7646904
		c-0.3299332-0.2975388-1.1379814-1.0711517-1.7045708-0.3401871c-0.566555,0.7309608,0.0661697,1.4162216,0.0661697,1.4162216
		C53.7892342,51.0573845,54.7900696,51.3493233,56.8794899,51.3009224z"/>
</g>
</svg>
