<?xml version="1.0" encoding="UTF-8"?>
<svg id="Capa_2" data-name="Capa 2" xmlns="http://www.w3.org/2000/svg" viewBox="0 0 60.03 72.5">
  <defs>
    <style>
      .cls-1 {
        fill: #f8bd00;
      }
    </style>
  </defs>
  <g id="Layer_1" data-name="Layer 1">
    <path class="cls-1" d="m60.03,30.01l-8.07-8.07v-4.05c0-2.92-2.37-5.3-5.29-5.3h-4.05L30.01,0l-12.6,12.6h-1.83c-2.92,0-5.3,2.38-5.3,5.3v1.83L.01,30v.76s-.01,41.73-.01,41.73h60.03V30.01Zm-11.63,10.17v-18.02h1.58l8.22,8.22-9.8,9.8Zm2.1-22.29v2.81h-29.62v-2.81c0-1.51-.63-2.87-1.65-3.83h27.43c2.11,0,3.83,1.72,3.83,3.83ZM30.01,2.21l10.39,10.39h-20.78L30.01,2.21Zm-14.43,11.85c2.11,0,3.83,1.72,3.83,3.83v4.27h27.52v19.48l-16.92,16.92-18.26-18.26v-22.4c0-2.11,1.72-3.83,3.83-3.83Zm4.57,36.86L1.46,69.61v-37.38l18.69,18.69Zm38.41,20.12H2.1l19.09-19.09,8.83,8.83,9.21-9.21,19.34,19.34v.13Z"/>
  </g>
</svg>