<?xml version="1.0" encoding="UTF-8"?>
<svg id="Capa_2" data-name="Capa 2" xmlns="http://www.w3.org/2000/svg" viewBox="0 0 60.08 60.08">
  <defs>
    <style>
      .cls-1 {
        fill: #212322;
      }
    </style>
  </defs>
  <g id="Layer_3" data-name="Layer 3">
    <path class="cls-1" d="m60.04,9.35c-.08-.18-.26-.3-.45-.3h-7.86l7.89-7.89c.19-.19.19-.5,0-.7s-.5-.19-.7,0l-7.89,7.89V.49c0-.2-.12-.38-.3-.45-.18-.08-.4-.03-.54.11l-13.63,13.63c-.09.09-.14.22-.14.35v8.84l-.14.14c-3.86-3.68-9.07-5.95-14.81-5.95C9.63,17.15,0,26.78,0,38.61s9.63,21.46,21.46,21.46,21.46-9.63,21.46-21.46c0-5.74-2.27-10.96-5.95-14.81l.14-.14h8.84c.13,0,.26-.05.35-.14l13.63-13.63c.14-.14.18-.35.11-.54Zm-9.99-7.67v7.65l-12.65,12.65v-7.65L50.05,1.68Zm-13.63,36.93c0,8.24-6.71,14.95-14.95,14.95s-14.95-6.71-14.95-14.95,6.71-14.95,14.95-14.95c3.94,0,7.53,1.55,10.2,4.05l-3.21,3.21c-1.85-1.68-4.3-2.72-6.99-2.72-5.74,0-10.41,4.67-10.41,10.41s4.67,10.41,10.41,10.41,10.41-4.67,10.41-10.41h0s4.54,0,4.54,0h0Zm-5.53,0c0,5.19-4.23,9.42-9.42,9.42s-9.42-4.23-9.42-9.42,4.23-9.42,9.42-9.42c2.42,0,4.62.93,6.29,2.43l-3.23,3.23c-.84-.69-1.9-1.12-3.07-1.12-2.69,0-4.88,2.19-4.88,4.88s2.19,4.88,4.88,4.88,4.88-2.19,4.88-4.88h0s4.54,0,4.54,0h0Zm-5.53,0c0,2.15-1.75,3.89-3.89,3.89s-3.89-1.75-3.89-3.89,1.75-3.89,3.89-3.89c.9,0,1.71.32,2.37.83l-2.72,2.72c-.19.19-.19.5,0,.7.1.1.22.14.35.14s.25-.05.35-.14l.35-.35h3.2Zm-3.89,20.48C10.17,59.09.98,49.9.98,38.61s9.19-20.48,20.48-20.48c5.47,0,10.43,2.17,14.11,5.67l-3.21,3.21c-2.85-2.68-6.68-4.34-10.9-4.34-8.79,0-15.93,7.15-15.93,15.93s7.15,15.93,15.93,15.93,15.93-7.15,15.93-15.93h0s4.54,0,4.54,0h0c0,11.29-9.19,20.48-20.48,20.48Z"/>
  </g>
</svg>